<?xml version="1.0" encoding="UTF-8"?>
<svg id="Layer_2" data-name="Layer 2" xmlns="http://www.w3.org/2000/svg" viewBox="0 0 145.9 84">
  <defs>
    <style>
      .cls-1 {
        fill: #ffffff;
      }
    </style>
  </defs>
  <g id="Layer_1-2" data-name="Layer 1">
    <g>
      <g>
        <path class="cls-1" d="m34.42,50.65h12.81v.46c-.97,0-2.96.65-2.08,2.91l7.4,19.52,7.4-19.52c.88-2.27-1.11-2.91-2.08-2.91v-.46h6.34v.46c-.97,0-2.68.65-3.56,2.91l-11.01,29h-.69l.05-.05-11.01-28.96c-.88-2.27-2.59-2.91-3.56-2.91v-.46Z"/>
        <path class="cls-1" d="m76.29,70.17c0,.43-.28.65-.83.65h-12.68c-.09.83-.14,1.7-.14,2.59,0,2.48.59,4.39,1.77,5.72,1.18,1.33,2.86,2,5.03,2,1.09,0,2.2-.29,3.31-.88,1.11-.59,2-1.33,2.68-2.24l.12-.05c.14,0,.27.08.4.25s.2.37.2.6c0,.32-.49,1-1.48,2.02-.99,1.03-2.06,1.81-3.21,2.35-1.16.54-2.37.81-3.63.81-2.77,0-5.11-1.02-7.01-3.05-1.9-2.04-2.85-4.53-2.85-7.49s.93-5.58,2.79-7.68c1.86-2.1,4.21-3.15,7.07-3.15,2.39,0,4.4.78,6.03,2.35,1.63,1.57,2.44,3.3,2.44,5.19Zm-4.21-2.04c0-1.16-.4-2.12-1.19-2.88-.79-.76-1.82-1.15-3.07-1.15s-2.22.5-3.09,1.49c-.87.99-1.46,2.3-1.77,3.92l6.43-.19c.97-.02,1.66-.11,2.07-.28.41-.17.61-.48.61-.93Z"/>
        <path class="cls-1" d="m103.07,82.66c0,.43-.12.65-.37.65-.62,0-1.37-.05-2.27-.14-.98-.09-1.85-.14-2.61-.14s-1.65.05-2.65.14c-.91.09-1.67.14-2.28.14-.25,0-.37-.22-.37-.65,0-.39.12-.59.37-.62,1.06-.12,1.76-.42,2.09-.9.33-.48.5-1.48.5-3.01v-7.73c0-1.73-.34-2.99-1.02-3.79-.68-.8-1.73-1.2-3.15-1.2-.89,0-1.68.17-2.37.51-.69.34-1.42.94-2.21,1.8v10.41c0,1.53.17,2.53.5,3.01.33.48,1.03.78,2.09.9.25.03.37.24.37.62,0,.43-.12.65-.37.65-.63,0-1.4-.05-2.31-.14-1-.09-1.88-.14-2.64-.14s-1.6.05-2.59.14c-.91.09-1.68.14-2.31.14-.25,0-.37-.22-.37-.65,0-.39.12-.59.37-.62,1.33-.17,2.18-.49,2.57-.96.38-.47.58-1.45.58-2.94v-8.55c0-1.23-.16-2.04-.47-2.42-.32-.39-1.02-.64-2.12-.76-.25,0-.37-.2-.37-.61,0-.38.12-.57.37-.57,1.53-.39,2.8-.82,3.82-1.31,1.02-.49,1.66-.88,1.92-1.19.15-.19.32-.28.51-.28.43,0,.65.12.65.37l-.19,2.91c2.22-2.07,4.28-3.1,6.19-3.1,2.09,0,3.73.6,4.91,1.8,1.18,1.2,1.77,2.82,1.77,4.86v8.84c0,1.51.19,2.5.57,2.96.38.46,1.22.78,2.53.95.25.03.37.24.37.62Z"/>
        <path class="cls-1" d="m115.65,82.66c0,.43-.12.65-.37.65-.63,0-1.44-.05-2.43-.14-1.11-.09-2.04-.14-2.79-.14s-1.69.05-2.76.14c-.97.09-1.77.14-2.41.14-.25,0-.37-.22-.37-.65,0-.39.12-.59.37-.62,1.31-.17,2.15-.49,2.53-.95.38-.46.57-1.45.57-2.96v-8.55c0-1.23-.16-2.04-.47-2.42-.32-.39-1.01-.64-2.07-.76-.25,0-.37-.2-.37-.61,0-.38.12-.57.37-.57,1.61-.42,2.94-.86,3.97-1.33,1.03-.47,1.68-.86,1.94-1.17.15-.19.32-.28.51-.28.43,0,.65.12.65.37-.25,3.45-.37,6.14-.37,8.05v7.26c0,1.51.19,2.5.57,2.96.38.46,1.24.78,2.58.95.25.03.37.24.37.62Zm-3.24-27.96c0,.65-.23,1.21-.71,1.69-.47.48-1.04.72-1.7.72s-1.23-.24-1.7-.72c-.47-.48-.71-1.04-.71-1.69s.23-1.25.69-1.71c.46-.46,1.03-.69,1.71-.69s1.23.23,1.7.69c.47.46.71,1.03.71,1.71Z"/>
      </g>
      <g>
        <path class="cls-1" d="m17.02,28.45L27.2,0h.65l15.31,42.88c1.16,3.24,3.61,4.49,4.58,4.49v.51h-12.86v-.51c.97,0,2.36-.93,1.2-4.35l-.09-.28c-2.64-7.86-8.7-13.32-18.32-13.46l-4.86,13.6c-1.48,4.12.6,4.49,1.57,4.49v.51h-6.57v-.51c.97,0,2.59-.37,4.07-4.49l4.86-13.55C7.72,29.74.65,36.82.65,46.4s6.71,13.88,13.23,13.88c6.15,0,12.12-3.93,12.12-11.15,0-3.05-1.25-4.63-2.18-5.55l.14-.32c1.16.74,3.56,2.96,3.56,7.54s-3.56,12.86-12.91,12.86c-8.46,0-14.62-6.75-14.62-17.25,0-9.67,7.63-17.58,17.02-17.95Zm.93,0c5.69.09,12.77,2.64,16.01,8.56l-9.53-26.65-6.48,18.09Z"/>
        <path class="cls-1" d="m87.13,41.03c0,.43-.12.65-.37.65-.62,0-1.37-.05-2.27-.14-.98-.09-1.86-.14-2.63-.14s-1.62.05-2.6.14c-.89.09-1.65.14-2.28.14-.25,0-.37-.22-.37-.65,0-.39.12-.59.37-.62,1.05-.12,1.73-.42,2.05-.9.32-.48.48-1.48.48-3.01v-7.73c0-1.74-.33-3.01-.99-3.81-.66-.79-1.7-1.19-3.11-1.19-1.86,0-3.4.63-4.61,1.9v10.82c0,1.53.17,2.53.51,3.01.34.48,1.03.78,2.08.9.25.03.37.24.37.62,0,.43-.12.65-.37.65-.62,0-1.34-.05-2.16-.14-.9-.09-1.72-.14-2.46-.14s-1.61.05-2.53.14c-.82.09-1.54.14-2.16.14-.25,0-.37-.22-.37-.65,0-.39.12-.59.37-.62,1.07-.12,1.77-.42,2.1-.9.33-.48.5-1.48.5-3.01v-7.73c0-1.73-.34-2.99-1.02-3.79-.68-.8-1.73-1.2-3.15-1.2-.9,0-1.69.17-2.38.51-.69.34-1.42.94-2.21,1.8v10.41c0,1.53.17,2.53.5,3.01.33.48,1.03.78,2.1.9.25.03.37.24.37.62,0,.43-.12.65-.37.65-.63,0-1.4-.05-2.31-.14-1-.09-1.88-.14-2.63-.14s-1.65.05-2.63.14c-.88.09-1.63.14-2.27.14-.25,0-.37-.22-.37-.65,0-.39.12-.59.37-.62,1.31-.17,2.15-.49,2.53-.95.38-.46.57-1.45.57-2.96v-8.55c0-1.23-.16-2.04-.47-2.42s-1.01-.64-2.07-.76c-.25,0-.37-.2-.37-.61,0-.38.12-.57.37-.57,1.52-.39,2.79-.82,3.8-1.31,1.01-.49,1.65-.88,1.91-1.19.15-.19.32-.28.51-.28.43,0,.65.12.65.37l-.18,2.91c2.23-2.07,4.3-3.1,6.22-3.1,2.94,0,4.94,1.13,5.99,3.38,2.34-2.25,4.62-3.38,6.85-3.38,2.11,0,3.75.6,4.92,1.8,1.18,1.2,1.76,2.82,1.76,4.86v8.84c0,1.51.19,2.5.57,2.96.38.46,1.22.78,2.53.95.25.03.37.24.37.62Z"/>
        <path class="cls-1" d="m104.59,23.31c0,.62-.19,1.14-.57,1.57-.38.43-.84.65-1.38.65-.68,0-1.35-.22-2.01-.67-.52-.35-.98-.53-1.36-.53-1,0-2.04.59-3.1,1.76v10.41c0,1.34.23,2.28.69,2.81.46.53,1.45.9,2.96,1.1.25.03.37.24.37.62,0,.43-.12.65-.37.65-.63,0-1.53-.05-2.68-.14-1.28-.09-2.29-.14-3.04-.14s-1.7.05-2.79.14c-.99.09-1.8.14-2.43.14-.25,0-.37-.22-.37-.65,0-.39.12-.59.37-.62,1.34-.17,2.2-.49,2.58-.95.38-.46.57-1.45.57-2.96v-8.55c0-1.23-.16-2.04-.47-2.42s-1.02-.64-2.12-.76c-.25,0-.37-.2-.37-.61,0-.38.12-.57.37-.57,1.53-.39,2.78-.81,3.77-1.28.99-.47,1.64-.87,1.94-1.21.18-.19.37-.28.55-.28.43,0,.64.12.64.37l-.18,2.91c1.23-1.14,2.29-1.94,3.18-2.41.89-.46,1.77-.69,2.65-.69.71,0,1.32.23,1.83.69.51.46.76,1,.76,1.62Z"/>
        <path class="cls-1" d="m129.43,40.16c0,.33-.12.51-.37.54-2.81.3-4.73.84-5.76,1.6-.22.17-.43.25-.65.25-.31,0-.46-.12-.46-.37l.19-2.91c-2.28,2.07-4.35,3.1-6.2,3.1-2.11,0-3.76-.6-4.94-1.79-1.18-1.2-1.77-2.82-1.77-4.88v-8.66c0-1.37-.18-2.29-.53-2.73-.35-.45-1.06-.67-2.1-.67-.2,0-.43,0-.67.02-.23,0-.35-.2-.35-.59,0-.49.12-.73.37-.73,1.78,0,4.12-.35,7.01-1.04.28,0,.41.19.41.58v12.72c0,1.74.33,3.01,1,3.8.66.79,1.71,1.19,3.13,1.19.91,0,1.72-.17,2.41-.51.7-.34,1.44-.94,2.23-1.81v-10.24c0-1.36-.18-2.27-.54-2.72s-1.08-.68-2.16-.68c-.18,0-.4,0-.65.02-.23,0-.35-.2-.35-.59,0-.49.12-.73.37-.73,1.79,0,4.13-.35,7.03-1.04.28,0,.42.19.42.58v14.76c0,1.06.15,1.78.45,2.14.3.36,1.01.62,2.12.78.25,0,.37.2.37.61Z"/>
        <path class="cls-1" d="m145.9,23.27c0,.83-.2,1.25-.6,1.25l-6.89-.18v11.1c0,2.9,1.03,4.35,3.1,4.35,1.28,0,2.44-.3,3.49-.9.12,0,.23.08.34.24s.15.34.15.52c0,.39-.57.91-1.72,1.56-1.15.66-2.44.98-3.87.98-1.75,0-3.15-.54-4.2-1.61-1.05-1.07-1.57-2.49-1.57-4.24v-.21l.09-11.24c0-.43-.18-.65-.55-.65h-1.76c-.34,0-.51-.2-.51-.59,0-.3.14-.53.41-.68,2.14-1.27,4-3.06,5.58-5.36.17-.25.38-.37.65-.37.43,0,.65.12.65.37l-.18,4.42h6.8c.4,0,.6.42.6,1.25Z"/>
      </g>
      <g>
        <path class="cls-1" d="m142.86,12.65c1.59,0,2.9,1.3,2.89,2.91-.01,1.58-1.31,2.87-2.91,2.86-1.58-.01-2.88-1.31-2.86-2.91.01-1.57,1.3-2.86,2.89-2.86Zm2.54,2.89c0-1.39-1.14-2.54-2.52-2.54-1.41,0-2.56,1.13-2.56,2.52,0,1.41,1.13,2.56,2.53,2.56,1.41,0,2.55-1.14,2.55-2.54Z"/>
        <path class="cls-1" d="m141.65,13.8c.15,0,.3-.01.45-.02.29-.01.58-.04.87,0,.15.02.31.06.45.12.32.13.48.38.53.71.06.43-.14.85-.51,1.05-.04.02-.08.04-.12.06.34.52.69,1.05,1.03,1.58-.03,0-.04,0-.06,0-.2,0-.4,0-.59,0-.05,0-.08-.02-.1-.06-.29-.45-.58-.9-.87-1.34-.02-.04-.05-.06-.09-.05-.11,0-.22,0-.33,0v1.45h-.65v-3.51Zm.65,1.51c.21.02.41.03.61-.01.25-.05.35-.15.39-.37,0-.04,0-.08.01-.12.01-.21-.08-.36-.29-.42-.19-.06-.38-.07-.58-.06-.05,0-.1,0-.14.01v.97Z"/>
      </g>
    </g>
  </g>
</svg>