<svg width="56" height="27" viewBox="0 0 56 27" fill="none" xmlns="http://www.w3.org/2000/svg">
<g clip-path="url(#clip0_83_1337)">
<path d="M46.0447 16.0181C46.7395 16.0181 47.3028 15.5382 47.3028 14.9462C47.3028 14.3542 46.7395 13.8743 46.0447 13.8743C45.3499 13.8743 44.7866 14.3542 44.7866 14.9462C44.7866 15.5382 45.3499 16.0181 46.0447 16.0181Z" fill="black"/>
<path d="M29.1875 9.88104C29.1883 9.91394 29.1907 9.96128 29.1979 10.0158C29.1939 9.9709 29.1899 9.92597 29.1875 9.88104ZM29.7203 10.5855C29.6513 10.5839 29.6023 10.5799 29.5566 10.5711C29.6047 10.5847 29.6593 10.5903 29.7211 10.5863L29.7203 10.5855Z" fill="black"/>
<path d="M55.7152 10.0006C55.6671 9.91631 55.5443 9.91069 55.4882 9.99012C55.0862 10.5582 54.6088 10.8462 54.0672 10.8462C53.1397 10.8462 52.7434 10.307 52.7434 9.04336V4.63772C52.7434 4.53262 52.8308 4.44837 52.9391 4.44837H53.7535C54.5189 4.44837 54.8944 4.50774 55.241 4.68426C55.3165 4.72277 55.4095 4.68426 55.432 4.60403C55.6045 3.99665 55.574 3.55617 55.3397 3.2577C55.091 2.94078 54.6281 2.79315 53.8827 2.79315H52.8894C52.8091 2.79315 52.7442 2.72976 52.7442 2.65194V1.59847C52.7442 1.05207 52.2876 0.609985 51.7252 0.609985C51.6618 0.609985 51.608 0.652509 51.5944 0.712685C51.2991 2.04376 50.4631 2.89023 49.1096 3.22721C49.0502 3.24166 49.0093 3.29381 49.0093 3.35318V3.99264C49.0093 4.24538 49.2203 4.44917 49.4802 4.44917H50.5048C50.565 4.44917 50.614 4.49651 50.614 4.55508V9.18698C50.614 12.1468 52.7329 12.4661 53.6436 12.4661C53.9902 12.4661 54.8599 12.4196 55.4392 11.9928C56.0747 11.5298 56.1758 10.8037 55.7152 10.0006Z" fill="black"/>
<path d="M30.1305 10.5855C30.0687 10.5903 30.0142 10.5847 29.966 10.5711H29.9652C29.7141 10.4988 29.6331 10.2156 29.6082 10.0214C29.6082 10.019 29.6082 10.0174 29.6082 10.0158C29.601 9.96127 29.5986 9.91394 29.5978 9.88104C29.5464 9.18381 29.593 8.53151 29.5994 7.82545C29.6058 7.13143 29.6082 6.4374 29.6042 5.74338C29.601 5.05417 29.5673 4.34009 29.191 3.73673C28.3164 2.33344 26.5505 2.64716 25.3021 3.29705C24.8078 3.5538 24.3272 3.88677 23.8915 4.27591C23.7319 3.77123 23.4406 3.32594 22.9103 3.00901C21.6811 2.27247 20.0901 3.02987 19.0462 3.75118C18.9548 3.81456 18.8641 3.88035 18.7758 3.94855C18.7758 3.94855 18.7758 3.94855 18.775 3.94935C18.7189 3.99268 18.6378 3.97824 18.6009 3.91726C18.4405 3.65329 18.1998 3.44067 17.8764 3.26095C17.4752 3.0371 16.7876 3.07721 16.3801 3.26095C15.9717 3.44549 16.0286 3.71427 16.3801 3.91004C16.7547 4.11865 16.7403 4.74527 16.7275 5.09188C16.6994 5.83966 16.6328 6.58664 16.6055 7.33522C16.5742 8.19132 16.6216 7.97388 16.5654 9.61948C16.5092 11.2675 16.4162 11.5306 16.6673 11.7834C17.2426 12.3627 18.7871 12.0385 18.8673 11.6478C18.8777 11.5964 18.8681 11.5555 18.8352 11.4921C18.6667 11.1728 18.6948 10.8061 18.6892 10.4571C18.6828 10.0511 18.6804 9.64515 18.6828 9.23837C18.6868 8.40073 18.7084 7.56309 18.7486 6.72544C18.763 6.41574 18.7959 6.10042 18.8216 5.7835C18.84 5.55483 18.9243 5.3374 19.0655 5.15687L19.0679 5.15366C19.2725 4.8929 19.518 4.69071 19.7635 4.55833C20.5434 4.13871 21.4107 4.25344 21.9138 5.06059C22.1697 5.47139 22.2034 5.97526 22.2163 6.44703C22.2179 6.51363 22.2195 6.58022 22.2203 6.64682C22.2251 6.89233 22.2243 7.13785 22.2227 7.38336C22.2195 7.67942 22.2139 7.97549 22.209 8.27155C22.205 8.53071 22.2002 9.08512 22.197 9.64435C22.1922 10.4667 22.8565 11.1351 23.6789 11.1359C23.8972 11.1359 24.0729 10.9578 24.0681 10.7403C24.0376 9.47426 24.0793 7.45477 24.0857 6.28015C24.0857 6.26972 24.0857 6.25929 24.0857 6.24725C24.0865 6.00093 24.1515 5.75702 24.2831 5.54841C24.3738 5.40399 24.4732 5.27081 24.5727 5.15848C24.9185 4.76774 25.1665 4.56074 25.631 4.39224C26.1445 4.2061 26.707 4.29436 27.1145 4.66825C27.5663 5.08226 27.6978 5.6463 27.7299 6.23762C27.7917 7.39459 27.7388 8.48497 27.7275 9.64275C27.7219 10.1835 27.6754 10.7588 27.7733 11.294C27.884 11.9061 28.3156 12.1444 28.9383 12.1565C29.4421 12.1669 29.9652 11.7906 30.2557 11.4023C30.4426 11.1527 30.6448 10.5951 30.1337 10.5847L30.1305 10.5855Z" fill="black"/>
<path d="M38.4226 4.03678C37.8987 2.73539 36.2876 2.59819 35.1483 3.07558C34.6452 3.28579 34.1975 3.58586 33.814 3.95013C33.6247 3.63882 33.3615 3.37003 33.0285 3.16223C32.6161 2.90468 32.0689 2.86456 31.6028 2.99213C31.3661 3.05712 30.8101 3.37966 31.2289 3.64123C31.951 4.09214 32.0818 4.74925 32.0842 5.54598C32.0874 6.49996 32.0858 7.45474 32.0818 8.40872C32.0769 9.49829 32.0689 10.5887 32.0561 11.6782C32.0481 12.337 34.1317 12.3514 34.1406 11.6782C34.155 10.4948 34.163 9.31055 34.167 8.1263C34.1694 7.40259 34.1791 6.67727 34.1751 5.95276C34.1735 5.58048 34.2449 5.20819 34.411 4.87442C34.5482 4.59922 34.7351 4.37536 34.9902 4.28711C35.7436 4.02715 36.5476 4.55348 36.8244 5.24189C37.0362 5.76903 38.6962 4.71796 38.4226 4.03758V4.03678Z" fill="black"/>
<path d="M48.4479 11.4063C47.8646 11.0485 47.6632 10.5526 47.5782 9.96449C47.5782 9.75508 47.5798 9.54487 47.5806 9.33546C47.5822 8.57164 47.583 7.80781 47.5838 7.04479C47.5854 6.29299 47.5958 5.5404 47.587 4.78941C47.5806 4.18285 47.518 3.53375 47.1016 3.05957C46.7991 2.71376 46.2511 2.67284 45.8203 2.72821C45.6566 2.74907 44.7981 2.97613 45.0917 3.31151C45.5266 3.80735 45.5033 4.44681 45.5033 5.07023C45.5025 5.88621 45.5001 6.70219 45.4993 7.51817C45.4977 8.14961 45.4969 8.78024 45.4961 9.41168C45.4961 9.71577 45.3693 10.0086 45.1431 10.2108C45.1423 10.2116 45.1415 10.2124 45.1407 10.2132C44.5895 10.6994 43.7847 10.6361 43.5456 10.6168C43.5416 10.6168 43.5376 10.6168 43.5328 10.616C43.3491 10.5999 42.5579 10.5061 42.1391 9.88827C41.9048 9.54166 41.8896 9.18222 41.8832 8.79388C41.8599 7.3585 41.9281 6.57462 41.9738 5.56126C42.0236 4.46045 41.9947 3.26577 40.7398 2.92157C40.3435 2.81245 39.7 2.7932 39.3695 3.08525C39.0413 3.37489 39.424 3.6188 39.708 3.70385C39.5636 3.66453 39.7113 3.71508 39.7795 3.81939C39.846 3.92128 39.8854 4.04083 39.9134 4.15797C39.9881 4.46447 39.9856 4.79423 39.9832 5.10714C39.9776 5.86535 39.8797 6.61955 39.8741 7.37776C39.8661 8.48739 39.9118 9.78718 40.7495 10.6136C41.6457 11.4978 43.1573 11.8789 44.3383 11.6029C44.8976 11.4721 45.2907 11.2827 45.5731 11.0468C45.6574 10.9762 45.732 10.9024 45.7978 10.8246C45.9847 11.2418 46.2816 11.5989 46.7181 11.8668C46.7229 11.87 46.7277 11.8733 46.7333 11.8757C47.1305 12.1124 47.644 12.1525 48.0885 12.0305C48.3131 11.9687 48.8539 11.655 48.4487 11.4063H48.4479Z" fill="black"/>
<path d="M7.38005 6.91077C7.40814 6.85381 7.38326 6.784 7.32469 6.75913C7.1554 6.68772 6.99012 6.63236 6.82885 6.59385C6.67239 6.55534 6.53439 6.53768 6.39558 6.53768C6.33621 6.53768 6.27443 6.54089 6.20704 6.54811C6.16451 6.55213 6.12118 6.55774 6.07786 6.56416C6.02009 6.57299 5.97035 6.6107 5.94467 6.66285C5.53628 7.48845 5.11906 8.31486 4.7893 9.17577C4.49805 9.93478 4.01505 11.0428 4.59754 11.777C4.80294 12.0361 5.23139 12.0578 5.53387 12.0185C5.66546 12.0016 6.26801 11.8468 6.06582 11.5924C5.51381 10.896 6.10754 9.70772 6.39799 9.00889C6.69325 8.29641 7.03585 7.60239 7.37925 6.91077H7.38005ZM15.2678 11.2988C14.581 10.7676 14.3291 9.89306 14.098 9.09233C13.871 8.30684 13.6439 7.52135 13.416 6.73586C13.3278 6.43017 13.2387 6.12448 13.1505 5.81959C13.0349 5.42324 12.9218 5.02608 12.8079 4.62812L12.7974 4.59282C12.6795 4.18202 12.5599 3.77202 12.4372 3.36283L11.9959 1.85684C11.7079 0.873175 10.6327 0.067627 9.60734 0.067627H8.85716C8.41266 0.067627 8.34446 0.279444 8.70552 0.5386C8.86679 0.654136 8.91894 0.890024 8.82266 1.06333C8.39501 1.83197 7.98341 2.60863 7.58064 3.39091C7.31346 3.91003 7.05029 4.43235 6.78873 4.95467C6.74701 5.03731 6.66196 5.08786 6.56969 5.08706C5.2354 5.07342 3.8947 5.44169 2.76581 6.1654C0.918022 7.34965 -0.21167 9.71414 0.0338452 11.8981C0.278558 14.0797 2.10869 15.5656 4.15225 16.0574C5.37662 16.3519 6.71171 16.3607 7.91441 15.9579C8.93178 15.6169 9.94032 15.004 10.3407 13.9569C10.6063 13.2653 8.55708 13.1136 8.33163 13.705C8.07488 14.3749 7.57021 14.8459 6.90988 15.1155C6.27844 15.3738 5.83074 15.3746 5.26188 15.2519C3.66523 14.9077 2.33656 13.6111 2.12554 11.9695C1.89447 10.1683 2.64626 8.18168 4.04955 7.02069C4.66976 6.508 5.43198 6.12448 6.24073 6.04505C6.24394 6.04505 6.24715 6.04505 6.25036 6.04425C6.48304 6.03141 6.79114 6.03943 7.13935 6.11967C7.35037 6.16781 7.5333 6.23199 7.68494 6.29698C7.88793 6.38123 8.08451 6.48072 8.27225 6.58984C9.75658 7.45235 10.7764 8.8749 11.8475 10.2068C11.8475 10.2068 12.3281 10.904 12.9539 11.4319L12.9563 11.4336C13.1609 11.6061 13.3815 11.7601 13.6062 11.8652C13.9809 12.0634 14.5096 12.053 14.8931 11.9479C15.1692 11.8716 15.6449 11.5908 15.267 11.2988H15.2678ZM11.476 7.23973C10.9456 6.72302 10.3639 6.25847 9.68678 5.88618C9.29443 5.67036 8.88203 5.49866 8.45679 5.37108C8.31398 5.32776 8.24337 5.16729 8.30996 5.0333C8.53221 4.588 8.75606 4.14431 8.98393 3.70142C9.21179 3.25772 9.44206 2.81483 9.67715 2.37515C9.75738 2.22512 9.97722 2.24116 10.0366 2.40083C10.1377 2.67202 10.2251 2.94802 10.307 3.21681C10.4297 3.62439 10.5501 4.03278 10.6696 4.44117C10.8614 5.1031 11.0508 5.76664 11.2425 6.42857C11.3211 6.69895 11.399 6.97014 11.4768 7.24053H11.476V7.23973Z" fill="black"/>
<path d="M29.7211 10.5851C29.6593 10.5897 29.6048 10.5843 29.5566 10.571C29.6024 10.5796 29.6513 10.5835 29.7203 10.5851H29.7211Z" fill="black"/>
<path d="M43.9717 10.6938C43.9717 10.6938 43.9677 10.6953 43.9661 10.6961C43.9289 10.7055 43.9087 10.7086 43.9087 10.7086L43.9111 10.7047C43.9394 10.6985 43.9717 10.6922 43.9717 10.6938Z" fill="black"/>
<path d="M31.544 24.0656C31.4469 24.9233 30.9462 25.4986 30.1471 25.7609C29.5943 25.9431 29.023 26.0337 28.4702 25.7954C27.2723 25.2779 26.7002 23.9926 26.6216 22.7313C26.6104 22.5564 26.7444 22.4056 26.9201 22.3999H26.9225C28.3402 22.347 29.8446 22.3382 31.2014 21.8824C32.1914 21.5511 33.3917 20.7046 33.1053 19.4987C32.8582 18.4605 31.7638 17.7432 30.7825 17.5153C29.579 17.2361 28.2528 17.468 27.1736 18.0505C25.3002 19.0622 24.1544 21.0312 24.489 23.183C24.8228 25.3365 26.5414 26.7526 28.6908 26.9123C30.6598 27.0583 33.4559 26.39 33.7191 24.0648C33.7921 23.4221 31.6274 23.3347 31.5448 24.0648L31.544 24.0656ZM28.0265 19.2283C28.0995 19.1665 28.183 19.0991 28.272 19.0301L28.2736 19.0285C28.3242 18.9924 29.3793 18.2486 30.3477 18.722C30.4263 18.7605 30.4969 18.8151 30.5563 18.8801C31.0826 19.4626 31.1219 20.354 30.3653 20.8739C29.4587 21.4973 27.9647 21.3705 26.9209 21.4107C26.8182 21.4155 26.7412 21.3184 26.7684 21.2197C26.9827 20.4519 27.4167 19.7418 28.0257 19.2291L28.0265 19.2283Z" fill="black"/>
<path d="M43.2674 25.2506C43.0876 25.241 42.8959 25.2129 42.7442 25.1054C42.4105 24.8671 42.5308 24.4098 42.5124 24.076C42.4939 23.7422 42.51 23.4004 42.538 23.0635C42.6263 22.0148 42.6423 20.7447 42.4602 19.6006C42.2652 18.3754 41.6539 17.3845 40.334 17.2256C39.2629 17.0965 38.1725 17.5771 37.3606 18.2438L37.1351 18.4292C37.0509 18.4982 36.9249 18.4604 36.8912 18.3569C36.827 18.158 36.7323 17.9702 36.5943 17.8001C36.3087 17.4471 35.7302 17.415 35.3122 17.4688C35.1357 17.4912 34.3045 17.7062 34.5845 18.0521C34.9977 18.5623 34.9455 19.2074 34.9206 19.8268C34.8878 20.642 34.8541 21.458 34.8204 22.2732C34.7883 23.0627 34.7554 23.8514 34.7233 24.6409C34.6976 25.2747 34.5981 25.935 35.1236 26.3956C35.4694 26.6989 36.1354 26.6796 36.5494 26.5657C36.8503 26.483 37.2747 26.2255 36.9233 25.9166C36.7379 25.7537 36.7781 25.4127 36.7845 25.1929C36.7949 24.8246 36.815 24.4563 36.8302 24.088L36.9241 21.7998C36.9321 21.6016 36.9409 21.4042 36.9498 21.206C36.973 20.6869 37.1223 20.1815 37.387 19.7338L37.3951 19.7201C37.4785 19.5781 37.5732 19.4425 37.6767 19.3141C37.8026 19.1585 37.7433 19.2243 37.8387 19.1248C37.8797 19.0823 38.0698 18.917 38.0466 18.9306C38.1059 18.8881 38.2199 18.8087 38.1452 18.8536C38.2399 18.795 38.2784 18.7766 38.2857 18.7734C38.4862 18.6851 38.5344 18.6779 38.7703 18.6442C38.7839 18.6426 38.7943 18.641 38.8024 18.6394C38.8048 18.6394 38.8112 18.6394 38.8248 18.6394C38.9307 18.6362 39.0366 18.6354 39.1425 18.6442C39.4105 18.665 39.6697 18.7461 39.9008 18.8857C40.7657 19.408 40.8034 20.6789 40.8716 21.5679C40.9141 22.1199 40.9237 22.6695 40.8981 23.2231C40.8965 23.2536 40.8949 23.2833 40.8941 23.3026C40.8892 23.3732 40.8828 23.4438 40.878 23.5144C40.8652 23.6989 40.8563 23.8826 40.8491 24.0672C40.8275 24.6296 40.6975 25.3429 40.8724 25.8805C41.0569 26.4477 41.6298 26.6499 42.1786 26.6796C42.6311 26.7045 43.1189 26.3378 43.3765 25.9936C43.5546 25.7561 43.7247 25.2747 43.2658 25.2498L43.2674 25.2506Z" fill="black"/>
<path d="M47.4609 26.4798C47.0549 26.6724 46.3873 26.7069 45.987 26.4798C45.0474 25.9479 44.9808 25.1086 45.0081 24.1282C45.0354 23.1597 45.0827 22.1929 45.1349 21.2245C45.1678 20.6155 45.2095 19.9584 45.1229 19.3374C45.1068 19.2219 45.086 19.1079 45.0603 18.9956C44.8854 18.365 44.4433 18.1339 44.4008 18.1138C44.3992 18.1138 44.0004 17.8908 44.0365 17.6549C44.0397 17.6356 44.0509 17.5738 44.1288 17.5032C44.3358 17.3155 44.9632 17.1085 45.6476 17.3139C46.4668 17.5602 46.876 18.2502 46.9618 18.4035C47.0741 18.6041 47.2426 18.9402 47.2466 20.2769C47.2499 21.3007 47.1496 22.3261 47.1159 23.3491C47.0998 23.8297 47.0661 24.3151 47.079 24.7949C47.087 25.1158 47.1464 25.6309 47.4609 25.809C47.8123 26.0088 47.8588 26.2921 47.4609 26.4798Z" fill="black"/>
<path d="M22.6029 14.679L22.4906 14.7055L22.501 14.821C22.5532 15.4091 22.4641 16.0374 22.2234 16.794L19.8244 23.439L16.6383 14.2417C16.5405 13.8879 16.3062 13.6143 15.9604 13.4522C15.3024 13.1433 14.4014 13.2781 13.8005 13.5501L13.6191 13.632L13.7628 13.7692C14.1503 14.1399 14.3798 14.8708 14.6726 15.7991L18.162 25.6261C18.316 26.1019 18.5704 26.4188 18.9162 26.5681C19.0718 26.6355 19.2443 26.6692 19.4377 26.6692C19.8252 26.6692 20.2954 26.5336 20.8755 26.2576L20.9501 26.2223L20.9517 26.1396C20.9694 25.3942 21.251 24.6569 21.4764 24.0664L24.4692 16.4594C24.6906 15.8721 24.6457 15.3586 24.3416 15.0136C23.9966 14.6213 23.3627 14.4993 22.6029 14.679Z" fill="black"/>
</g>
<defs>
<clipPath id="clip0_83_1337">
<rect width="56" height="26.8647" fill="white" transform="translate(0 0.067627)"/>
</clipPath>
</defs>
</svg>
