<svg width="32" height="32" viewBox="0 0 32 32" fill="none" xmlns="http://www.w3.org/2000/svg">
<g clip-path="url(#clip0_83_1568)">
<path d="M15.9881 0L18.5211 0.868571H21.1979L23.3109 2.51429L25.8421 3.38286L27.3067 5.62455L29.4197 7.26857L30.0766 9.86413L31.5412 12.1041L31.3194 14.7725L31.9763 17.368L30.9012 19.8197L30.6811 22.488L28.8677 24.4571L27.7909 26.9088L25.4375 28.1837L23.6241 30.1528L20.9829 30.593L18.6294 31.8679L15.9881 31.4277L13.3469 31.8679L10.9934 30.593L8.35217 30.1528L6.53884 28.1837L4.1854 26.9088L3.11026 24.4571L1.29693 22.488L1.07513 19.8197L0 17.368L0.656931 14.7725L0.436825 12.1041L1.89968 9.86413L2.55831 7.26857L4.66963 5.62455L6.13418 3.38286L8.66709 2.51429L10.7784 0.868571H13.4569L15.9881 0Z" fill="white"/>
<path d="M15.4888 20.314L15.9121 21.6177H17.2835L16.1745 22.4236L16.5978 23.7273L15.4888 22.9214L14.3798 23.7273L14.8031 22.4236L13.6958 21.6177H15.0655L15.4888 20.314Z" fill="#01704A"/>
<path d="M11.5725 20.8574L11.8604 21.7463H12.795L12.0398 22.2949L12.3277 23.1838L11.5725 22.6335L10.8157 23.1838L11.1052 22.2949L10.3501 21.7463H11.283L11.5725 20.8574Z" fill="#01704A"/>
<path d="M19.4436 20.8574L19.7331 21.7463H20.6661L19.9109 22.2949L20.2004 23.1838L19.4436 22.6335L18.6885 23.1838L18.9763 22.2949L18.2212 21.7463H19.1558L19.4436 20.8574Z" fill="#01704A"/>
<path d="M13.396 6.23217L15.2737 8.49926L18.5803 3.67725L15.167 7.1346L13.396 6.23217Z" fill="#01704A"/>
<path d="M9.76245 18.7445C9.56888 18.8243 9.36049 18.8619 9.15123 18.8546C8.49769 18.8546 8.00668 18.4448 8.00668 17.688C7.99764 17.5267 8.02272 17.3653 8.08023 17.2145C8.13773 17.0634 8.22642 16.9264 8.34047 16.812C8.45453 16.6976 8.5914 16.6085 8.74219 16.5506C8.89297 16.4927 9.05427 16.4672 9.21557 16.4757C9.40451 16.4673 9.59283 16.5026 9.76584 16.579L9.69303 16.8211C9.54607 16.7558 9.38656 16.7234 9.22573 16.7263C8.68393 16.7263 8.3233 17.065 8.3233 17.6779C8.3233 18.2417 8.64838 18.6057 9.21219 18.6057C9.37965 18.6077 9.54573 18.5749 9.69981 18.5092L9.76245 18.7445Z" fill="#01704A"/>
<path d="M11.4287 17.739H10.528V18.5703H11.532V18.8209H10.23V16.5132H11.4795V16.7638H10.528V17.4918H11.4287V17.739Z" fill="#01704A"/>
<path d="M11.999 16.5433C12.1885 16.51 12.3806 16.4942 12.573 16.4959C12.8145 16.4693 13.057 16.5366 13.2502 16.6839C13.3102 16.7397 13.3575 16.8077 13.389 16.8834C13.4206 16.959 13.4356 17.0404 13.4331 17.1224C13.4344 17.2548 13.3924 17.384 13.3136 17.4903C13.2347 17.5966 13.1233 17.6743 12.9963 17.7116V17.7217C13.0889 17.7624 13.1691 17.8269 13.2286 17.9087C13.2881 17.9904 13.3248 18.0866 13.3349 18.1874C13.3754 18.4034 13.4355 18.6154 13.5144 18.8206H13.2045C13.1357 18.642 13.0841 18.4571 13.0505 18.2686C12.981 17.9503 12.8574 17.8318 12.5865 17.8216H12.3038V18.8206H12.0058L11.999 16.5433ZM12.297 17.5948H12.6035C12.9235 17.5948 13.1249 17.4255 13.1249 17.1562C13.1249 16.8583 12.9099 16.7296 12.5933 16.7262C12.4938 16.7235 12.3944 16.7326 12.297 16.7533V17.5948Z" fill="#01704A"/>
<path d="M14.4036 16.7672H13.6992V16.5132H15.4144V16.7672H14.7066V18.8209H14.4036V16.7672Z" fill="#01704A"/>
<path d="M16.0558 16.5132V18.8209H15.7578V16.5132H16.0558Z" fill="#01704A"/>
<path d="M16.6636 16.5132H17.9114V16.7638H16.9633V17.5392H17.8386V17.7847H16.9633V18.8294H16.6636V16.5132Z" fill="#01704A"/>
<path d="M18.7225 16.5132V18.8209H18.4229V16.5132H18.7225Z" fill="#01704A"/>
<path d="M20.5293 17.739H19.6286V18.5703H20.6326V18.8209H19.3306V16.5132H20.5818V16.7638H19.6286V17.4918H20.5293V17.739Z" fill="#01704A"/>
<path d="M21.1064 16.5435C21.3166 16.5121 21.5289 16.4963 21.7414 16.4961C22.1714 16.4961 22.4779 16.596 22.6794 16.7839C22.7908 16.8899 22.8776 17.0189 22.934 17.1618C22.9904 17.3049 23.0151 17.4585 23.0061 17.6119C23.0134 17.7766 22.9873 17.941 22.9291 18.0954C22.8708 18.2497 22.7818 18.3904 22.6675 18.5092C22.4508 18.7242 22.0935 18.8478 21.6516 18.8478C21.4706 18.8489 21.2898 18.8399 21.1098 18.8208L21.1064 16.5435ZM21.4044 18.5837C21.5048 18.5973 21.6063 18.603 21.7075 18.6006C22.3458 18.6006 22.6929 18.2451 22.6929 17.622C22.6929 17.0785 22.3881 16.7331 21.7549 16.7331C21.6374 16.7314 21.5199 16.7416 21.4044 16.7636V18.5837Z" fill="#01704A"/>
<path d="M12.6578 14.9079C12.2097 15.0731 11.7369 15.1612 11.2593 15.1686C10.5651 15.1686 9.99456 14.9993 9.54589 14.5642C9.33147 14.3364 9.16458 14.0681 9.055 13.7751C8.9454 13.4821 8.89529 13.1701 8.90758 12.8575C8.90758 11.4912 9.85234 10.4872 11.388 10.4872C11.7788 10.4777 12.1673 10.5492 12.5292 10.6971L12.3869 11.1796C12.0668 11.0406 11.72 10.9735 11.3711 10.9832C10.2553 10.9832 9.52896 11.6774 9.52896 12.8254C9.52896 13.9733 10.2282 14.6742 11.2966 14.6742C11.5646 14.6888 11.8328 14.6472 12.0839 14.5523V13.186H11.1527V12.7102H12.6629L12.6578 14.9079Z" fill="#01704A"/>
<path d="M17.4221 13.1012C17.3882 12.4612 17.3476 11.6942 17.3544 11.122H17.3341C17.1783 11.6604 16.9954 12.2309 16.7567 12.8625L15.9474 15.0856H15.4919L14.7504 12.9031C14.5336 12.258 14.3508 11.6671 14.2204 11.122H14.2069C14.1933 11.6942 14.1595 12.4612 14.1188 13.1537L13.9969 15.1177H13.4331L13.7514 10.5361H14.5065L15.2888 12.7524C15.4784 13.3162 15.6274 13.8191 15.751 14.2949H15.7713C15.8864 13.8326 16.049 13.3298 16.2538 12.7524L17.0682 10.5361H17.8234L18.1095 15.1177H17.5305L17.4221 13.1012Z" fill="#01704A"/>
<path d="M19.0273 10.5852C19.4024 10.5246 19.7818 10.4951 20.1617 10.4972C20.7476 10.4972 21.1776 10.6326 21.4468 10.8781C21.5797 10.9988 21.6845 11.1472 21.7538 11.3127C21.8232 11.4783 21.8554 11.6571 21.8481 11.8364C21.8565 12.0148 21.8296 12.1931 21.7688 12.3611C21.7082 12.529 21.6148 12.6833 21.4942 12.8151C21.181 13.1537 20.6714 13.323 20.094 13.323C19.9343 13.3281 19.7747 13.3144 19.6182 13.2824V15.1177H19.0273V10.5852ZM19.6182 12.7981C19.7788 12.8341 19.9432 12.85 20.1076 12.8455C20.8221 12.8455 21.2572 12.4984 21.2572 11.8669C21.2572 11.2625 20.8288 10.9696 20.1753 10.9696C19.9884 10.9644 19.8016 10.9803 19.6182 11.017V12.7981Z" fill="#01704A"/>
</g>
<defs>
<clipPath id="clip0_83_1568">
<rect width="32" height="32" fill="white"/>
</clipPath>
</defs>
</svg>
