<svg width="32" height="32" viewBox="0 0 32 32" fill="none" xmlns="http://www.w3.org/2000/svg">
<g clip-path="url(#clip0_83_1677)">
<path d="M15.9881 0L18.5211 0.868571H21.1979L23.3109 2.51429L25.8421 3.38286L27.3067 5.62455L29.4197 7.26857L30.0766 9.86413L31.5412 12.1041L31.3194 14.7725L31.9763 17.368L30.9012 19.8197L30.6811 22.488L28.8677 24.4571L27.7909 26.9088L25.4375 28.1837L23.6241 30.1528L20.9829 30.593L18.6294 31.8679L15.9881 31.4277L13.3469 31.8679L10.9934 30.593L8.35217 30.1528L6.53884 28.1837L4.1854 26.9088L3.11026 24.4571L1.29693 22.488L1.07513 19.8197L0 17.368L0.656931 14.7725L0.436825 12.1041L1.89968 9.86413L2.55831 7.26857L4.66963 5.62455L6.13418 3.38286L8.66709 2.51429L10.7784 0.868571H13.4569L15.9881 0Z" fill="white"/>
<path d="M15.9695 20.314L16.3928 21.6177H17.7625L16.6535 22.4236L17.0785 23.7273L15.9695 22.9214L14.8605 23.7273L15.2838 22.4236L14.1748 21.6177H15.5462L15.9695 20.314Z" fill="#01704A"/>
<path d="M12.0532 20.8574L12.3411 21.7463H13.2757L12.5188 22.2949L12.8084 23.1838L12.0532 22.6335L11.2964 23.1838L11.5859 22.2949L10.8291 21.7463H11.7637L12.0532 20.8574Z" fill="#01704A"/>
<path d="M19.9248 20.8574L20.2126 21.7463H21.1472L20.3921 22.2949L20.6799 23.1838L19.9248 22.6335L19.168 23.1838L19.4575 22.2949L18.7007 21.7463H19.6353L19.9248 20.8574Z" fill="#01704A"/>
<path d="M13.396 6.23217L15.2737 8.49926L18.5803 3.67725L15.167 7.1346L13.396 6.23217Z" fill="#01704A"/>
<path d="M5.06916 15.2417V18.8193H4.60693V15.2417H5.06916Z" fill="#01704A"/>
<path d="M5.94622 18.2569C6.19771 18.4071 6.48461 18.4877 6.77754 18.4905C7.25162 18.4905 7.52929 18.2399 7.52929 17.8793C7.52929 17.5187 7.33627 17.3544 6.85204 17.1682C6.26622 16.9616 5.90389 16.6603 5.90389 16.1523C5.90389 15.5953 6.36781 15.1805 7.06537 15.1805C7.34005 15.1696 7.61306 15.2279 7.85945 15.3498L7.73246 15.7274C7.5238 15.6168 7.29135 15.5587 7.05521 15.558C6.56421 15.558 6.37796 15.8493 6.37796 16.0948C6.37796 16.4334 6.59638 16.5925 7.09246 16.7839C7.6986 17.0175 8.00844 17.3104 8.00844 17.8353C8.00844 18.3872 7.59871 18.8647 6.75045 18.8647C6.43045 18.8694 6.11477 18.7906 5.83447 18.6361L5.94622 18.2569Z" fill="#01704A"/>
<path d="M11.8435 16.9921C11.8435 18.2247 11.0935 18.8765 10.1758 18.8765C9.22764 18.8765 8.56055 18.1451 8.56055 17.0615C8.56055 15.9254 9.26996 15.1821 10.23 15.1821C11.19 15.1821 11.8435 15.9305 11.8435 16.9921ZM9.05663 17.0513C9.05663 17.8149 9.47314 18.5006 10.2029 18.5006C10.9326 18.5006 11.3542 17.8234 11.3542 17.0141C11.3542 16.303 10.98 15.5597 10.208 15.5597C9.43589 15.5597 9.05663 16.2657 9.05663 17.0513Z" fill="#01704A"/>
<path d="M15.1265 18.819V17.8793H13.5181V17.5712L15.0639 15.3701H15.5718V17.5153H16.0561V17.881H15.5718V18.8207L15.1265 18.819ZM15.1265 17.5136V16.3606C15.1265 16.1811 15.1265 16 15.1435 15.8188H15.1265C15.0199 16.0203 14.9352 16.1693 14.8387 16.3267L13.9921 17.5001V17.5119L15.1265 17.5136Z" fill="#01704A"/>
<path d="M18.6126 15.761H17.2902L17.1582 16.6465C17.2513 16.6329 17.3451 16.6261 17.4392 16.6262C17.7003 16.6202 17.9582 16.6845 18.1859 16.8125C18.3415 16.9007 18.47 17.0299 18.5575 17.186C18.6449 17.3421 18.6879 17.5192 18.682 17.698C18.682 18.3752 18.1436 18.8831 17.3918 18.8831C17.0903 18.8904 16.7923 18.8173 16.5283 18.6715L16.6451 18.316C16.8726 18.4404 17.1275 18.5061 17.3867 18.5073C17.8286 18.5073 18.2079 18.2211 18.2079 17.7589C18.2079 17.2967 17.9031 16.9936 17.2106 16.9936C17.0503 16.9957 16.8902 17.008 16.7315 17.0309L16.955 15.375H18.6126V15.761Z" fill="#01704A"/>
<path d="M21.7145 17.0564C21.7145 18.2297 21.2776 18.8765 20.5106 18.8765C19.8334 18.8765 19.3746 18.245 19.3644 17.1038C19.3542 15.9626 19.8723 15.3091 20.5682 15.3091C21.2996 15.3091 21.7145 15.966 21.7145 17.0564ZM19.8334 17.1089C19.8334 18.0062 20.1094 18.5159 20.536 18.5159C21.0169 18.5159 21.2455 17.9588 21.2455 17.0767C21.2455 16.2301 21.027 15.6714 20.5411 15.6714C20.1314 15.6714 19.83 16.1692 19.83 17.1089H19.8334Z" fill="#01704A"/>
<path d="M24.5824 17.0564C24.5824 18.2297 24.1439 18.8765 23.3769 18.8765C22.6997 18.8765 22.2425 18.245 22.2307 17.1038C22.2188 15.9626 22.7386 15.3091 23.4362 15.3091C24.1659 15.3091 24.5824 15.966 24.5824 17.0564ZM22.6997 17.1089C22.6997 18.0062 22.9773 18.5159 23.404 18.5159C23.8832 18.5159 24.1117 17.9588 24.1117 17.0767C24.1117 16.2301 23.8933 15.6714 23.4091 15.6714C22.9993 15.6714 22.7081 16.1692 22.7081 17.1089H22.6997Z" fill="#01704A"/>
<path d="M26.1636 15.7968H26.1534L25.5507 16.1355L25.4609 15.7799L26.2178 15.377H26.6173V18.8275H26.1636V15.7968Z" fill="#01704A"/>
<path d="M10.2805 13.0084C10.0865 13.0867 9.87835 13.1236 9.6693 13.1168C9.01576 13.1168 8.52475 12.7071 8.52475 11.9502C8.51571 11.789 8.54078 11.6276 8.5983 11.4766C8.6558 11.3257 8.74448 11.1886 8.85853 11.0742C8.9726 10.9598 9.10947 10.8707 9.26026 10.8128C9.41103 10.7549 9.57234 10.7294 9.73364 10.738C9.92251 10.7304 10.1106 10.7657 10.2839 10.8412L10.2111 11.0833C10.0641 11.018 9.90463 10.9856 9.7438 10.9885C9.202 10.9885 8.84136 11.3272 8.84136 11.9401C8.84136 12.5056 9.16644 12.8679 9.73025 12.8679C9.89779 12.8706 10.064 12.8377 10.2179 12.7714L10.2805 13.0084Z" fill="#01704A"/>
<path d="M11.9397 12.001H11.0389V12.834H12.0413V13.088H10.7393V10.7769H11.9888V11.0257H11.0372V11.7555H11.938L11.9397 12.001Z" fill="#01704A"/>
<path d="M12.5173 10.8072C12.7067 10.7733 12.8989 10.7569 13.0913 10.7581C13.3302 10.7342 13.5693 10.802 13.7601 10.9478C13.8201 11.0032 13.8674 11.0709 13.899 11.1463C13.9305 11.2217 13.9455 11.3029 13.9429 11.3846C13.9445 11.517 13.9026 11.6464 13.8237 11.7527C13.7449 11.8592 13.6333 11.9368 13.5061 11.9738V11.9839C13.5985 12.025 13.6784 12.0896 13.7378 12.1714C13.7973 12.2531 13.8341 12.349 13.8447 12.4496C13.885 12.6657 13.945 12.8777 14.0242 13.0828H13.7144C13.6451 12.9048 13.5935 12.7205 13.5603 12.5325C13.4909 12.2142 13.3673 12.094 13.0964 12.0838H12.8136V13.0879H12.5156L12.5173 10.8072ZM12.8153 11.857H13.1218C13.4418 11.857 13.6432 11.6876 13.6432 11.4201C13.6432 11.1221 13.4282 10.9918 13.1116 10.9884C13.0121 10.9857 12.9127 10.9948 12.8153 11.0155V11.857Z" fill="#01704A"/>
<path d="M14.9197 11.0291H14.2153V10.7769H15.9355V11.0291H15.2244V13.088H14.9197V11.0291Z" fill="#01704A"/>
<path d="M16.5741 10.7769V13.088H16.2744V10.7769H16.5741Z" fill="#01704A"/>
<path d="M17.1816 10.7769H18.4295V11.0257H17.4813V11.7927H18.3567V12.0399H17.4813V13.088H17.1816V10.7769Z" fill="#01704A"/>
<path d="M19.2406 10.7769V13.088H18.9409V10.7769H19.2406Z" fill="#01704A"/>
<path d="M21.0474 12.001H20.1466V12.834H21.1506V13.088H19.8486V10.7769H21.0982V11.0257H20.1466V11.7555H21.0474V12.001Z" fill="#01704A"/>
<path d="M21.6247 10.8074C21.8348 10.7754 22.0471 10.759 22.2596 10.7583C22.6897 10.7583 22.9944 10.8582 23.1976 11.0461C23.309 11.1524 23.3961 11.2816 23.4524 11.4249C23.509 11.5682 23.5335 11.722 23.5244 11.8758C23.5317 12.0402 23.5053 12.2044 23.4472 12.3584C23.3889 12.5124 23.3001 12.6529 23.1858 12.7714C22.969 12.9881 22.6118 13.11 22.1614 13.11C21.9804 13.1111 21.7996 13.102 21.6196 13.083L21.6247 10.8074ZM21.9227 12.8476C22.0231 12.8612 22.1245 12.8669 22.2258 12.8645C22.8641 12.8645 23.2112 12.509 23.2112 11.8859C23.2112 11.3407 22.9064 10.9953 22.2732 10.9953C22.1557 10.9936 22.0382 11.0038 21.9227 11.0258V12.8476Z" fill="#01704A"/>
</g>
<defs>
<clipPath id="clip0_83_1677">
<rect width="32" height="32" fill="white"/>
</clipPath>
</defs>
</svg>
