<svg width="32" height="32" viewBox="0 0 32 32" fill="none" xmlns="http://www.w3.org/2000/svg">
<g clip-path="url(#clip0_83_1586)">
<path d="M15.9881 0L18.5211 0.868571H21.1979L23.3109 2.51429L25.8421 3.38286L27.3067 5.62455L29.4197 7.26857L30.0766 9.86413L31.5412 12.1041L31.3194 14.7725L31.9763 17.368L30.9012 19.8197L30.6811 22.488L28.8677 24.4571L27.7909 26.9088L25.4375 28.1837L23.6241 30.1528L20.9829 30.593L18.6294 31.8679L15.9881 31.4277L13.3469 31.8679L10.9934 30.593L8.35217 30.1528L6.53884 28.1837L4.1854 26.9088L3.11026 24.4571L1.29693 22.488L1.07513 19.8197L0 17.368L0.656931 14.7725L0.436825 12.1041L1.89968 9.86413L2.55831 7.26857L4.66963 5.62455L6.13418 3.38286L8.66709 2.51429L10.7784 0.868571H13.4569L15.9881 0Z" fill="white"/>
<path d="M15.9881 29.1877C23.308 29.1877 29.2419 23.2538 29.2419 15.9339C29.2419 8.61409 23.308 2.68018 15.9881 2.68018C8.66829 2.68018 2.73438 8.61409 2.73438 15.9339C2.73438 23.2538 8.66829 29.1877 15.9881 29.1877Z" fill="white"/>
<path d="M15.9879 3.46582C13.5218 3.46548 11.111 4.19649 9.06034 5.56638C7.00971 6.93626 5.41137 8.8835 4.46747 11.1618C3.52357 13.4402 3.27653 15.9472 3.75756 18.366C4.2386 20.7848 5.4261 23.0065 7.16992 24.7502C8.91371 26.4941 11.1355 27.6815 13.5542 28.1627C15.973 28.6437 18.48 28.3965 20.7583 27.4528C23.0367 26.5089 24.984 24.9106 26.3539 22.8599C27.7238 20.8091 28.4547 18.3983 28.4544 15.9323C28.4508 12.6271 27.1363 9.45825 24.7991 7.12112C22.4619 4.78398 19.2931 3.46941 15.9879 3.46582ZM15.9879 28.3175C13.5383 28.3178 11.1436 27.5916 9.10661 26.231C7.06965 24.8703 5.48196 22.936 4.54429 20.673C3.60662 18.41 3.36112 15.9197 3.8388 13.5171C4.3165 11.1145 5.49594 8.9075 7.22797 7.17523C8.96 5.44296 11.1668 4.26321 13.5694 3.78519C15.9719 3.30718 18.4622 3.55234 20.7254 4.48969C22.9886 5.42705 24.923 7.01449 26.284 9.05126C27.6451 11.088 28.3714 13.4826 28.3714 15.9323C28.3682 19.2157 27.0626 22.3639 24.741 24.6859C22.4194 27.0078 19.2714 28.3139 15.9879 28.3175Z" fill="#01704A"/>
<path d="M16.0424 22.2762C19.7023 22.2762 22.6693 19.3092 22.6693 15.6493C22.6693 11.9894 19.7023 9.02246 16.0424 9.02246C12.3825 9.02246 9.41553 11.9894 9.41553 15.6493C9.41553 19.3092 12.3825 22.2762 16.0424 22.2762Z" fill="#01704A"/>
<path d="M16.0426 8.15234C14.5598 8.15234 13.1103 8.59205 11.8774 9.41584C10.6445 10.2396 9.68354 11.4105 9.1161 12.7805C8.54866 14.1504 8.40019 15.6578 8.68946 17.1122C8.97875 18.5664 9.69277 19.9023 10.7413 20.9508C11.7898 21.9992 13.1256 22.7134 14.5799 23.0025C16.0342 23.2919 17.5416 23.1434 18.9115 22.5759C20.2815 22.0085 21.4524 21.0475 22.2761 19.8147C23.1 18.5818 23.5397 17.1323 23.5397 15.6495C23.5375 13.6618 22.7468 11.7562 21.3413 10.3507C19.9359 8.94518 18.0303 8.15458 16.0426 8.15234ZM16.0426 23.0637C14.5762 23.0637 13.1427 22.6289 11.9235 21.8141C10.7042 20.9994 9.75391 19.8415 9.19274 18.4868C8.63157 17.132 8.48475 15.6413 8.77083 14.2031C9.0569 12.7648 9.76305 11.4438 10.7999 10.4069C11.8368 9.36999 13.1579 8.66385 14.5961 8.37777C16.0343 8.0917 17.5251 8.23851 18.8799 8.79967C20.2346 9.36084 21.3925 10.3111 22.2072 11.5304C23.0219 12.7496 23.4567 14.1831 23.4567 15.6495C23.454 17.615 22.672 19.4993 21.2823 20.8892C19.8924 22.2789 18.0081 23.061 16.0426 23.0637Z" fill="#01704A"/>
<path d="M5.81415 15.3801L5.94283 15.7763C5.94635 15.787 5.95316 15.7964 5.96227 15.803C5.97136 15.8097 5.98233 15.8134 5.99362 15.8135H6.41013C6.42115 15.8136 6.43185 15.8172 6.44073 15.8237C6.44958 15.8303 6.45617 15.8395 6.45955 15.8499C6.46292 15.8604 6.46291 15.8717 6.4595 15.8822C6.4561 15.8927 6.4495 15.9018 6.44061 15.9083L6.10198 16.1538C6.09298 16.1604 6.08631 16.1698 6.08295 16.1804C6.07962 16.1911 6.07975 16.2025 6.08336 16.2131L6.21204 16.6076C6.21579 16.6182 6.21603 16.6298 6.21268 16.6406C6.20934 16.6514 6.20261 16.6608 6.19348 16.6675C6.18434 16.6742 6.17331 16.6777 6.162 16.6776C6.15071 16.6775 6.13976 16.6737 6.13077 16.6669L5.79214 16.423C5.78298 16.4166 5.77204 16.4131 5.76082 16.4131C5.74959 16.4131 5.73866 16.4166 5.7295 16.423L5.39087 16.6669C5.38188 16.6737 5.37093 16.6775 5.35962 16.6776C5.34832 16.6777 5.3373 16.6742 5.32816 16.6675C5.31903 16.6608 5.31229 16.6514 5.30896 16.6406C5.30561 16.6298 5.30584 16.6182 5.3096 16.6076L5.43828 16.2131C5.44189 16.2025 5.44202 16.1911 5.43867 16.1804C5.43532 16.1698 5.42866 16.1604 5.41965 16.1538L5.08103 15.9083C5.07214 15.9018 5.06554 15.8927 5.06214 15.8822C5.05873 15.8717 5.05872 15.8604 5.06208 15.8499C5.06545 15.8395 5.07206 15.8303 5.08091 15.8237C5.08978 15.8172 5.10048 15.8136 5.11151 15.8135H5.53309C5.54446 15.8136 5.55554 15.8101 5.5647 15.8034C5.57386 15.7966 5.58059 15.7871 5.58389 15.7763L5.71257 15.3801C5.71549 15.3688 5.72206 15.3589 5.73126 15.3518C5.74045 15.3447 5.75174 15.3408 5.76336 15.3408C5.77497 15.3408 5.78627 15.3447 5.79546 15.3518C5.80465 15.3589 5.81122 15.3688 5.81415 15.3801Z" fill="#01704A"/>
<path d="M26.1621 15.3805L26.0334 15.7767C26.0302 15.7875 26.0235 15.797 26.0143 15.8038C26.0052 15.8105 25.994 15.814 25.9826 15.8139H25.5661C25.5551 15.814 25.5445 15.8176 25.5355 15.8241C25.5267 15.8307 25.5201 15.8399 25.5167 15.8503C25.5133 15.8608 25.5133 15.8721 25.5167 15.8826C25.5201 15.8931 25.5269 15.9022 25.5357 15.9087L25.8743 16.1542C25.8833 16.1608 25.89 16.1702 25.8933 16.1808C25.8966 16.1915 25.8965 16.2029 25.8929 16.2135L25.7642 16.608C25.7605 16.6186 25.7602 16.6302 25.7636 16.641C25.7669 16.6518 25.7737 16.6612 25.7829 16.6679C25.792 16.6746 25.803 16.6781 25.8142 16.678C25.8255 16.6779 25.8365 16.6741 25.8455 16.6673L26.1841 16.4234C26.1933 16.417 26.2043 16.4135 26.2155 16.4135C26.2266 16.4135 26.2376 16.417 26.2468 16.4234L26.5854 16.6673C26.5944 16.6741 26.6054 16.6779 26.6167 16.678C26.6279 16.6781 26.6389 16.6746 26.648 16.6679C26.6572 16.6612 26.664 16.6518 26.6673 16.641C26.6707 16.6302 26.6704 16.6186 26.6667 16.608L26.538 16.2135C26.5344 16.2029 26.5343 16.1915 26.5377 16.1808C26.5409 16.1702 26.5476 16.1608 26.5566 16.1542L26.8952 15.9087C26.904 15.9022 26.9106 15.8931 26.9142 15.8826C26.9176 15.8721 26.9176 15.8608 26.9142 15.8503C26.9108 15.8399 26.9042 15.8307 26.8954 15.8241C26.8864 15.8176 26.8758 15.814 26.8648 15.8139H26.4483C26.4369 15.814 26.4257 15.8105 26.4166 15.8038C26.4075 15.797 26.4007 15.7875 26.3975 15.7767L26.2688 15.3805C26.2688 15.3663 26.2632 15.3528 26.2532 15.3428C26.2432 15.3328 26.2297 15.3271 26.2155 15.3271C26.2012 15.3271 26.1877 15.3328 26.1777 15.3428C26.1677 15.3528 26.1621 15.3663 26.1621 15.3805Z" fill="#01704A"/>
<path d="M6.69445 14.0476L6.65551 14.3236L5.59223 14.1712L5.6481 14.5099L5.42291 14.4777L5.29932 13.8732V13.8428L6.69445 14.0476Z" fill="#01704A"/>
<path d="M6.57256 12.189C6.72668 12.2258 6.86425 12.3128 6.96367 12.4362C7.00073 12.492 7.02391 12.5558 7.03127 12.6224C7.03864 12.6889 7.02997 12.7563 7.006 12.8188C6.99039 12.8833 6.95989 12.9432 6.91695 12.9938C6.87403 13.0443 6.81987 13.0842 6.7588 13.11C6.61123 13.1573 6.45204 13.1538 6.30674 13.0999L6.06123 13.0237C5.90643 12.9884 5.76839 12.9012 5.67012 12.7765C5.63347 12.7209 5.61053 12.6573 5.60316 12.5911C5.59581 12.5249 5.60424 12.4579 5.6278 12.3955C5.64378 12.3312 5.67441 12.2715 5.71729 12.221C5.76016 12.1705 5.81414 12.1305 5.87499 12.1043C6.02199 12.057 6.18063 12.0606 6.32536 12.1145L6.57256 12.189ZM6.21869 12.3718C6.13736 12.3405 6.04932 12.3305 5.96303 12.3431C5.9339 12.3495 5.90718 12.3641 5.88591 12.3851C5.86466 12.406 5.84973 12.4325 5.84282 12.4616C5.83226 12.4884 5.82934 12.5177 5.83442 12.5461C5.8395 12.5745 5.85239 12.6009 5.8716 12.6224C5.93073 12.6795 6.00365 12.7204 6.08325 12.7409L6.41002 12.8408C6.49203 12.8719 6.5804 12.8823 6.66737 12.8713C6.69697 12.8646 6.72419 12.85 6.74624 12.8292C6.76828 12.8083 6.78432 12.782 6.79266 12.7528C6.80413 12.7243 6.80702 12.6932 6.80101 12.6631C6.795 12.633 6.78032 12.6053 6.7588 12.5835C6.69644 12.5263 6.62079 12.4855 6.53869 12.465L6.21869 12.3718Z" fill="#01704A"/>
<path d="M7.22648 10.7633C7.36895 10.8237 7.48784 10.9289 7.5651 11.063C7.58896 11.1246 7.59988 11.1903 7.59722 11.2563C7.59454 11.3222 7.57832 11.3869 7.54959 11.4463C7.52084 11.5057 7.48017 11.5585 7.43012 11.6015C7.38006 11.6445 7.3217 11.6768 7.25865 11.6963C7.10567 11.7212 6.94875 11.6938 6.81335 11.6184L6.5814 11.5049C6.43462 11.4446 6.31238 11.3366 6.23431 11.1985C6.21128 11.1369 6.20102 11.0713 6.20417 11.0056C6.20734 10.9399 6.22383 10.8756 6.25266 10.8165C6.28149 10.7574 6.32206 10.7048 6.37187 10.6619C6.4217 10.619 6.47974 10.5867 6.54245 10.5669C6.69507 10.5421 6.8516 10.5701 6.98605 10.6465L7.22648 10.7633ZM6.84891 10.8886C6.77331 10.8444 6.68757 10.8205 6.60002 10.8192C6.57021 10.8209 6.54147 10.831 6.51719 10.8484C6.49291 10.8658 6.47407 10.8897 6.46288 10.9174C6.44801 10.9432 6.44019 10.9724 6.44019 11.0021C6.44019 11.0318 6.44801 11.061 6.46288 11.0867C6.51315 11.1517 6.57894 11.2029 6.6542 11.2357L6.96066 11.3864C7.03754 11.429 7.1234 11.4528 7.21124 11.4558C7.2416 11.4546 7.27095 11.4447 7.29586 11.4273C7.32075 11.4099 7.34015 11.3857 7.35177 11.3576C7.36789 11.3323 7.37645 11.303 7.37645 11.273C7.37645 11.243 7.36789 11.2136 7.35177 11.1883C7.29767 11.1234 7.22929 11.0718 7.15198 11.0376L6.84891 10.8886Z" fill="#01704A"/>
<path d="M7.07903 9.89654C7.04662 9.87493 7.01916 9.84672 6.99845 9.81374C6.97773 9.78076 6.96421 9.74378 6.95881 9.70521C6.95016 9.62464 6.97324 9.54386 7.02315 9.48003C7.04523 9.44622 7.07383 9.41713 7.10725 9.39446C7.14067 9.37179 7.17828 9.35597 7.21786 9.34796C7.25719 9.34143 7.29746 9.34333 7.33599 9.35355C7.37451 9.36376 7.41044 9.38206 7.44135 9.40722L7.49723 9.44786C7.52965 9.46904 7.55716 9.49693 7.5779 9.52964C7.59864 9.56235 7.61212 9.59912 7.61744 9.63749C7.62409 9.71817 7.60162 9.79857 7.5541 9.86411C7.50657 9.92964 7.43714 9.97599 7.35839 9.99474C7.31918 10.0012 7.27907 9.99939 7.24058 9.98949C7.2021 9.97958 7.16612 9.96176 7.1349 9.93717L7.07903 9.89654ZM7.24834 9.78987C7.26146 9.80069 7.2766 9.80882 7.29287 9.81376C7.30914 9.81869 7.32624 9.82036 7.34315 9.81865C7.35932 9.8165 7.37481 9.81085 7.38856 9.80208C7.40231 9.79329 7.41398 9.78162 7.42273 9.76786C7.43301 9.75557 7.44032 9.74109 7.44413 9.72555C7.44796 9.70999 7.44816 9.69377 7.44474 9.67812C7.436 9.64452 7.41482 9.61546 7.38548 9.59685L7.32791 9.55453C7.31479 9.54371 7.29966 9.53558 7.28338 9.53064C7.26711 9.52571 7.25003 9.52403 7.2331 9.52574C7.20125 9.53075 7.17267 9.54816 7.15364 9.57418C7.13459 9.60021 7.12665 9.6327 7.13151 9.66458C7.1393 9.69953 7.16062 9.72995 7.19077 9.74924L7.24834 9.78987ZM8.12368 10.2165L7.98485 10.2826L7.49892 9.08384L7.63945 9.01611L8.12368 10.2165ZM8.11352 9.82373C8.08057 9.80272 8.05271 9.77467 8.03193 9.74158C8.01114 9.7085 7.99795 9.6712 7.99331 9.63241C7.98447 9.55182 8.00757 9.47097 8.05765 9.40722C8.10303 9.34043 8.17197 9.29326 8.25067 9.27516C8.29025 9.26827 8.33087 9.26998 8.36973 9.28021C8.40858 9.29043 8.44478 9.30892 8.47585 9.33442L8.53172 9.37505C8.56393 9.39647 8.59127 9.42443 8.61199 9.45709C8.6327 9.48976 8.64631 9.52642 8.65193 9.56468C8.6606 9.64526 8.63751 9.72604 8.5876 9.78987C8.54159 9.85788 8.47133 9.90573 8.39119 9.92363C8.35252 9.93023 8.31289 9.9285 8.27493 9.91858C8.23698 9.90866 8.20158 9.89075 8.17109 9.86606L8.11352 9.82373ZM8.28283 9.71876C8.30955 9.73867 8.34282 9.74774 8.37596 9.74416C8.39221 9.74223 8.40787 9.73684 8.42189 9.72838C8.43591 9.71991 8.44795 9.70855 8.45723 9.69505C8.46793 9.68229 8.47558 9.66725 8.47963 9.65108C8.48367 9.63493 8.48399 9.61807 8.48057 9.60176C8.47715 9.58546 8.47006 9.57015 8.45987 9.55698C8.44966 9.54381 8.4366 9.53312 8.42167 9.52574L8.36241 9.48341C8.33583 9.46173 8.30176 9.45138 8.2676 9.45463C8.25155 9.45648 8.23609 9.46183 8.22234 9.47031C8.20857 9.47879 8.19686 9.4902 8.18802 9.50373C8.17773 9.51635 8.17039 9.53111 8.16658 9.54694C8.16278 9.56277 8.16257 9.57925 8.16601 9.59516C8.1696 9.61213 8.17656 9.62819 8.18643 9.64245C8.19632 9.65669 8.20895 9.66881 8.22358 9.67812L8.28283 9.71876Z" fill="#01704A"/>
<path d="M10.6243 7.81391L10.3974 7.99338L10.025 7.521L9.58136 7.86978L9.95554 8.34216L9.72697 8.52333L8.8584 7.4211L9.08528 7.24163L9.43745 7.68862L9.87935 7.33983L9.52718 6.89285L9.75406 6.71338L10.6243 7.81391Z" fill="#01704A"/>
<path d="M11.6977 6.85703L11.249 7.09576L11.2998 7.39544L11.0289 7.53936L10.8325 6.05449L11.0696 5.9292L12.1904 6.92306L11.9195 7.06698L11.6977 6.85703ZM11.2084 6.85703L11.5182 6.68772L11.1204 6.30507L11.2084 6.85703Z" fill="#01704A"/>
<path d="M12.834 6.44223L13.4164 6.24752L13.4893 6.46763L12.6342 6.75546L12.1855 5.42466L12.4598 5.33154L12.834 6.44223Z" fill="#01704A"/>
<path d="M14.7351 5.92591L14.2272 6.00718L14.1781 6.30856L13.875 6.35597L14.1679 4.88803L14.4337 4.8457L15.1838 6.15279L14.8807 6.20189L14.7351 5.92591ZM14.2746 5.7566L14.6217 5.70073L14.3643 5.20972L14.2746 5.7566Z" fill="#01704A"/>
<path d="M15.9475 5.89889L16.5621 5.90735V6.13931L15.6597 6.12577L15.68 4.72217H15.9695L15.9475 5.89889Z" fill="#01704A"/>
<path d="M19.0984 6.10521C19.0799 6.17035 19.0484 6.23099 19.0056 6.28343C18.9627 6.33585 18.9096 6.37892 18.8495 6.40997C18.7193 6.47167 18.571 6.48313 18.433 6.44214C18.3544 6.4263 18.2804 6.39296 18.2166 6.3446C18.1526 6.29623 18.1004 6.23408 18.0639 6.16278C17.9909 5.99836 17.9801 5.81308 18.0334 5.6413L18.0537 5.55833C18.081 5.4391 18.1336 5.3271 18.2078 5.22987C18.2726 5.14494 18.3619 5.08175 18.4634 5.0487C18.5833 5.01493 18.7105 5.01714 18.829 5.05507C18.9477 5.093 19.0525 5.16497 19.1305 5.26204C19.2081 5.37854 19.2365 5.52083 19.2101 5.65823L18.9291 5.58881C18.9411 5.55459 18.9451 5.51809 18.9409 5.48208C18.9367 5.44606 18.9243 5.41149 18.9047 5.38096C18.885 5.35045 18.8588 5.32479 18.8278 5.30594C18.7968 5.2871 18.7619 5.27555 18.7259 5.2722C18.6858 5.25968 18.6431 5.25762 18.6018 5.26622C18.5606 5.2748 18.5224 5.29377 18.4905 5.3213C18.4135 5.40308 18.3617 5.50539 18.3415 5.6159L18.3161 5.71918C18.2811 5.82874 18.2764 5.94579 18.3026 6.0578C18.3175 6.09756 18.3424 6.13271 18.3751 6.15975C18.4077 6.18679 18.447 6.20477 18.4888 6.21188C18.5578 6.23543 18.6331 6.23116 18.6988 6.20003C18.7589 6.1612 18.8014 6.10045 18.8173 6.03071L19.0984 6.10521Z" fill="#01704A"/>
<path d="M20.5022 6.51195L19.9943 6.29353L19.847 6.63216L20.4464 6.88782L20.3549 7.10115L19.4897 6.73205L20.0417 5.44189L20.9052 5.811L20.8121 6.02602L20.2161 5.77036L20.084 6.07851L20.592 6.29692L20.5022 6.51195Z" fill="#01704A"/>
<path d="M21.5177 7.19254L21.323 7.06894L21.047 7.50746L20.8032 7.35169L21.5567 6.1665L21.9969 6.44587C22.1171 6.51197 22.2105 6.61794 22.261 6.74555C22.2793 6.80227 22.284 6.86251 22.2745 6.92137C22.2652 6.98022 22.2419 7.03602 22.2068 7.08418C22.1643 7.15718 22.1013 7.21607 22.0257 7.25349C21.95 7.28622 21.8663 7.29565 21.7852 7.28058L21.7327 7.92735V7.9392L21.4703 7.76989L21.5177 7.19254ZM21.45 6.87084L21.6464 6.99613C21.6952 7.03203 21.7558 7.04777 21.8157 7.04016C21.8435 7.03431 21.8697 7.0227 21.8927 7.00609C21.9159 6.98946 21.9351 6.9682 21.9495 6.94365C21.9671 6.91957 21.9794 6.89202 21.9855 6.86282C21.9916 6.83363 21.9915 6.80346 21.985 6.77433C21.9667 6.71414 21.9253 6.66364 21.8699 6.63381L21.6735 6.50851L21.45 6.87084Z" fill="#01704A"/>
<path d="M23.6493 8.05596L23.3293 7.76982L22.5471 8.63839L22.332 8.44538L23.1143 7.57511L22.8027 7.29236L22.9602 7.12305L23.8067 7.88834L23.6493 8.05596Z" fill="#01704A"/>
<path d="M23.4091 9.54927L23.2212 9.32916L24.2946 8.42334L24.4809 8.64345L23.4091 9.54927Z" fill="#01704A"/>
<path d="M24.7312 10.4366L24.4298 9.96934L23.9473 10.2809L23.7915 10.0371L24.9767 9.27686L25.4728 10.0438L25.2764 10.1708L24.9377 9.64596L24.633 9.84236L24.9344 10.3097L24.7312 10.4366Z" fill="#01704A"/>
<path d="M24.6536 11.5471L24.5283 11.2863L25.7965 10.6836L25.9201 10.9443L24.6536 11.5471Z" fill="#01704A"/>
<path d="M25.7407 12.7304L25.5714 12.2021L25.2141 12.319L25.4173 12.9387L25.1955 13.0115L24.9043 12.1158L26.2368 11.6807L26.5297 12.5729L26.3062 12.6457L26.1047 12.0278L25.7864 12.131L25.9557 12.6593L25.7407 12.7304Z" fill="#01704A"/>
<path d="M25.312 13.5097L26.6987 13.2896L26.7664 13.7162C26.7857 13.83 26.7747 13.9468 26.7342 14.0548C26.6955 14.1599 26.6266 14.2512 26.5361 14.3173C26.4364 14.39 26.3199 14.4366 26.1975 14.4527L26.1332 14.4629C26.0143 14.4839 25.8922 14.4752 25.7776 14.4375C25.6715 14.4024 25.578 14.3371 25.5084 14.2496C25.4361 14.1591 25.3894 14.0509 25.373 13.9363L25.312 13.5097ZM26.5124 13.6129L25.5863 13.7585L25.6083 13.8974C25.6129 13.9462 25.6288 13.9933 25.655 14.0348C25.6813 14.0763 25.7168 14.111 25.759 14.1361C25.8601 14.1863 25.9754 14.2007 26.0858 14.1767L26.1586 14.1649C26.2739 14.1559 26.3822 14.1067 26.465 14.0261C26.4972 13.9893 26.5202 13.9454 26.5322 13.898C26.5443 13.8507 26.5451 13.8012 26.5344 13.7535L26.5124 13.6129Z" fill="#01704A"/>
<path d="M25.2832 17.8182L25.3221 17.5422L26.3854 17.6946L26.3312 17.356L26.5547 17.3881L26.6783 17.9926V18.023L25.2832 17.8182Z" fill="#01704A"/>
<path d="M25.4052 19.6756C25.2517 19.6395 25.1145 19.5532 25.0158 19.4301C24.9786 19.3744 24.9552 19.3105 24.9476 19.244C24.9399 19.1775 24.9482 19.1101 24.9718 19.0474C24.9874 18.9829 25.0178 18.923 25.0608 18.8725C25.1037 18.8219 25.1579 18.7821 25.219 18.7562C25.3656 18.7063 25.5244 18.7063 25.671 18.7562L25.9182 18.8324C26.0725 18.8686 26.21 18.9565 26.3077 19.0813C26.3415 19.1385 26.363 19.2022 26.371 19.2682C26.3789 19.3342 26.373 19.4011 26.3537 19.4648C26.3346 19.5284 26.3022 19.5875 26.2591 19.638C26.2159 19.6886 26.1627 19.7296 26.1028 19.7585C25.957 19.8098 25.7982 19.8098 25.6524 19.7585L25.4052 19.6756ZM25.7591 19.4927C25.8415 19.5267 25.9313 19.5391 26.0198 19.5283C26.0478 19.5201 26.0733 19.5052 26.0942 19.4849C26.1151 19.4646 26.1307 19.4394 26.1395 19.4116C26.1483 19.3839 26.1504 19.3544 26.1451 19.3256C26.1399 19.297 26.1277 19.2701 26.1096 19.2472C26.0498 19.1913 25.977 19.1512 25.8979 19.1304L25.5711 19.0305C25.4892 18.9993 25.4008 18.989 25.3138 19C25.284 19.0058 25.2564 19.02 25.2344 19.041C25.2125 19.062 25.1971 19.0889 25.1902 19.1185C25.178 19.1468 25.1746 19.178 25.1804 19.2081C25.1861 19.2382 25.2007 19.266 25.2224 19.2879C25.2848 19.3444 25.3605 19.3847 25.4425 19.4047L25.7591 19.4927Z" fill="#01704A"/>
<path d="M24.7602 21.1032C24.6136 21.0435 24.4914 20.9361 24.4131 20.7985C24.3896 20.7369 24.3789 20.671 24.3818 20.605C24.3847 20.5391 24.4011 20.4744 24.4301 20.4152C24.4588 20.3557 24.4996 20.3029 24.5498 20.2599C24.5999 20.2171 24.6583 20.1847 24.7213 20.1653C24.8738 20.1419 25.0299 20.1698 25.1649 20.2448L25.3968 20.3583C25.544 20.4182 25.6662 20.5262 25.7439 20.6647C25.7675 20.7264 25.7781 20.7921 25.7752 20.8577C25.7722 20.9236 25.7559 20.9881 25.727 21.0474C25.698 21.1066 25.6572 21.1593 25.6073 21.2021C25.5572 21.245 25.4988 21.277 25.4358 21.2963C25.2832 21.3203 25.1269 21.2924 24.9922 21.2167L24.7602 21.1032ZM25.1378 20.978C25.2136 21.0215 25.2991 21.0453 25.3867 21.0474C25.4161 21.0445 25.4442 21.0338 25.4683 21.0166C25.4923 20.9993 25.5115 20.9761 25.5238 20.9492C25.5397 20.9238 25.5482 20.8945 25.5482 20.8645C25.5482 20.8346 25.5397 20.8053 25.5238 20.7799C25.474 20.7145 25.408 20.6632 25.3325 20.6309L25.026 20.4802C24.9492 20.4375 24.8633 20.4138 24.7755 20.4108C24.7452 20.4119 24.7157 20.4219 24.6908 20.4394C24.6659 20.4566 24.6466 20.4809 24.6349 20.509C24.62 20.5347 24.6122 20.5638 24.6122 20.5936C24.6122 20.6234 24.62 20.6525 24.6349 20.6783C24.6891 20.7426 24.7575 20.7936 24.8347 20.8273L25.1378 20.978Z" fill="#01704A"/>
<path d="M23.8661 22.048C23.8983 22.0695 23.9259 22.0974 23.9467 22.1301C23.9677 22.1628 23.9818 22.1993 23.988 22.2376C23.9921 22.3177 23.9686 22.3969 23.9213 22.4618C23.8743 22.5268 23.8064 22.5737 23.729 22.5948C23.6894 22.6018 23.6487 22.6001 23.61 22.5898C23.571 22.5796 23.5348 22.5612 23.5038 22.5356L23.4479 22.4949C23.4158 22.4736 23.3883 22.4455 23.3677 22.4128C23.347 22.3803 23.3333 22.3436 23.3277 22.3053C23.3231 22.2246 23.3465 22.1448 23.3941 22.0793C23.4415 22.0139 23.5102 21.967 23.5885 21.9464C23.6274 21.9399 23.6674 21.9416 23.7054 21.9515C23.7437 21.9614 23.7794 21.9792 23.8103 22.0039L23.8661 22.048ZM23.6968 22.1546C23.6694 22.1348 23.6357 22.1257 23.602 22.1292C23.5859 22.1309 23.5702 22.136 23.5563 22.1441C23.5422 22.1523 23.53 22.1634 23.5207 22.1766C23.5101 22.1895 23.5024 22.2046 23.4985 22.2208C23.4947 22.2371 23.4945 22.254 23.498 22.2704C23.5016 22.2867 23.5089 22.3019 23.5194 22.3151C23.5297 22.3282 23.5429 22.3387 23.558 22.346L23.6172 22.3883C23.6301 22.3989 23.645 22.4071 23.6609 22.412C23.6768 22.4169 23.6938 22.4186 23.7104 22.4171C23.7263 22.4149 23.7417 22.4094 23.7554 22.401C23.7691 22.3925 23.7808 22.3813 23.7899 22.368C23.7999 22.3551 23.8072 22.3404 23.8113 22.3248C23.8153 22.309 23.8162 22.2926 23.8136 22.2765C23.8057 22.2422 23.7843 22.2124 23.7544 22.1936L23.6968 22.1546ZM23.8543 21.6569L23.9931 21.5908L24.479 22.7896L24.3402 22.8556L23.8543 21.6569ZM24.8989 21.9701C24.9311 21.9914 24.9585 22.0195 24.9792 22.0522C24.9998 22.0847 25.0136 22.1214 25.0191 22.1597C25.0241 22.1997 25.021 22.2401 25.0098 22.2789C24.9988 22.3175 24.98 22.3536 24.9548 22.3849C24.9328 22.4189 24.9042 22.4482 24.8708 22.4712C24.8373 22.4941 24.7997 22.5102 24.7601 22.5187C24.7208 22.5249 24.6805 22.5229 24.6421 22.5127C24.6035 22.5026 24.5676 22.4844 24.5366 22.4594L24.4807 22.4188C24.4484 22.3969 24.4211 22.3688 24.4005 22.3358C24.3796 22.3028 24.3661 22.2659 24.3605 22.2274C24.3563 22.1473 24.3798 22.0684 24.4269 22.0036C24.4741 21.9389 24.5422 21.8924 24.6196 21.8719C24.6588 21.8649 24.699 21.8666 24.7376 21.8765C24.776 21.8864 24.8121 21.9046 24.8431 21.9294L24.8989 21.9701ZM24.7296 22.0751C24.7025 22.0544 24.6687 22.0447 24.6348 22.048C24.6189 22.05 24.6035 22.0554 24.5898 22.0639C24.576 22.0723 24.5642 22.0837 24.5552 22.0971C24.5454 22.1099 24.5383 22.1247 24.5344 22.1404C24.5307 22.1562 24.5302 22.1726 24.5332 22.1885C24.5424 22.2218 24.5635 22.2508 24.5925 22.2698L24.65 22.3121C24.677 22.3331 24.7108 22.3432 24.7449 22.3409C24.7608 22.3388 24.7762 22.3334 24.7899 22.325C24.8036 22.3165 24.8155 22.3051 24.8244 22.2918C24.8348 22.2792 24.842 22.2643 24.8459 22.2486C24.8497 22.2327 24.8498 22.2163 24.8464 22.2003C24.8427 22.1832 24.8354 22.1672 24.8253 22.1528C24.8151 22.1385 24.8021 22.1265 24.7872 22.1174L24.7296 22.0751Z" fill="#01704A"/>
<path d="M21.3535 24.0525L21.5804 23.873L21.9529 24.3454L22.3965 23.9966L22.024 23.5242L22.2509 23.3447L23.1211 24.4469L22.8926 24.6247L22.5404 24.1794L22.0985 24.5282L22.4507 24.9752L22.2238 25.1547L21.3535 24.0525Z" fill="#01704A"/>
<path d="M20.2803 25.009L20.729 24.7703L20.6782 24.4706L20.9491 24.3267L21.1455 25.8115L20.9101 25.9368L19.7876 24.9463L20.0585 24.8024L20.2803 25.009ZM20.7696 25.009L20.4598 25.1783L20.861 25.5609L20.7696 25.009Z" fill="#01704A"/>
<path d="M19.1458 25.4239L18.5701 25.6237L18.4956 25.4036L19.3523 25.1157L19.7993 26.4465L19.525 26.5379L19.1458 25.4239Z" fill="#01704A"/>
<path d="M17.2427 25.9388L17.7506 25.8593L17.7997 25.5579L18.1028 25.5088L17.8031 26.9784L17.539 27.0207L16.7974 25.7187L17.1004 25.6696L17.2427 25.9388ZM17.7032 26.1082L17.3646 26.164L17.6219 26.655L17.7032 26.1082Z" fill="#01704A"/>
<path d="M16.0306 25.9622H15.416V25.7285L16.3201 25.7438L16.3015 27.1473H16.012L16.0306 25.9622Z" fill="#01704A"/>
<path d="M12.8815 25.761C12.8995 25.6957 12.9308 25.6349 12.9733 25.5821C13.0158 25.5294 13.0687 25.4861 13.1287 25.4546C13.2598 25.3943 13.4084 25.3835 13.5469 25.4241C13.6253 25.4397 13.6992 25.473 13.7628 25.5214C13.8265 25.5697 13.8783 25.632 13.9143 25.7035C13.9871 25.8673 13.9979 26.0521 13.9448 26.2232L13.9245 26.3079C13.8979 26.4274 13.8453 26.5395 13.7704 26.6364C13.7051 26.7209 13.6161 26.7838 13.5147 26.8175C13.3947 26.8516 13.2673 26.8494 13.1486 26.8111C13.0299 26.7728 12.9252 26.7002 12.8476 26.6025C12.7708 26.4864 12.7422 26.3448 12.7681 26.208L13.0491 26.2774C13.0316 26.3477 13.0413 26.4222 13.0762 26.4857C13.1194 26.5432 13.1831 26.582 13.254 26.594C13.2939 26.6064 13.3363 26.6084 13.3772 26.5998C13.4181 26.5912 13.4561 26.5724 13.4876 26.5449C13.5653 26.4637 13.6172 26.3611 13.6366 26.2503L13.662 26.1471C13.698 26.0377 13.7027 25.9203 13.6756 25.8084C13.6607 25.7686 13.6357 25.7336 13.6031 25.7065C13.5704 25.6794 13.5312 25.6615 13.4893 25.6544C13.4212 25.6312 13.3467 25.6347 13.2811 25.6645C13.2211 25.7035 13.1787 25.7642 13.1626 25.8338L12.8815 25.761Z" fill="#01704A"/>
<path d="M11.4762 25.3546L11.9841 25.573L12.1314 25.2344L11.5321 24.9787L11.6235 24.7637L12.4887 25.1345L11.9367 26.4246L11.0732 26.0555L11.1664 25.8405L11.764 26.0962L11.8944 25.788L11.3865 25.5696L11.4762 25.3546Z" fill="#01704A"/>
<path d="M10.46 24.6739L10.6547 24.7975L10.9306 24.3641L11.1745 24.5199L10.421 25.7051L9.98081 25.424C9.85982 25.3588 9.76614 25.2525 9.71668 25.1243C9.69861 25.0676 9.69411 25.0073 9.70351 24.9486C9.71292 24.8898 9.73598 24.8339 9.77086 24.7857C9.8137 24.7131 9.87661 24.6541 9.95202 24.6164C10.0283 24.5837 10.1125 24.5742 10.1941 24.5893L10.2449 23.9408V23.9307L10.5074 24.1L10.46 24.6739ZM10.5294 24.9939L10.333 24.8687C10.2839 24.8336 10.2234 24.8185 10.1637 24.8263C10.1358 24.8312 10.1093 24.8426 10.0865 24.8593C10.0636 24.8761 10.0448 24.8978 10.0316 24.9228C10.0148 24.9457 10.0029 24.9718 9.9965 24.9994C9.9901 25.0271 9.98937 25.0557 9.99435 25.0837C10.0128 25.1443 10.0541 25.1953 10.1095 25.2259L10.3059 25.3495L10.5294 24.9939Z" fill="#01704A"/>
<path d="M8.32328 23.8088L8.64328 24.0966L9.4255 23.228L9.64053 23.421L8.85831 24.2896L9.17323 24.5741L9.01746 24.7434L8.1709 23.9781L8.32328 23.8088Z" fill="#01704A"/>
<path d="M8.57051 22.3169L8.75675 22.537L7.68501 23.4428L7.49707 23.2227L8.57051 22.3169Z" fill="#01704A"/>
<path d="M7.24673 21.4297L7.54811 21.8987L8.03065 21.5871L8.18811 21.831L7.00292 22.5912L6.50684 21.8225L6.70493 21.6955L7.04356 22.2204L7.34662 22.024L7.0571 21.5601L7.24673 21.4297Z" fill="#01704A"/>
<path d="M7.32456 20.3174L7.44985 20.5798L6.1817 21.1826L6.05811 20.9218L7.32456 20.3174Z" fill="#01704A"/>
<path d="M6.23724 19.1355L6.40655 19.6638L6.7638 19.547L6.56062 18.9273L6.78242 18.8545L7.07533 19.7485L5.74115 20.1853L5.44824 19.293L5.67173 19.2202L5.87322 19.8382L6.19152 19.7332L6.02221 19.2067L6.23724 19.1355Z" fill="#01704A"/>
<path d="M6.66568 18.3569L5.27902 18.5754L5.21298 18.1487C5.19226 18.0351 5.20279 17.9181 5.24346 17.8101C5.28277 17.7058 5.3516 17.6152 5.44155 17.5493C5.54092 17.4758 5.65755 17.4291 5.78018 17.4139L5.84452 17.4037C5.96388 17.3827 6.08657 17.3915 6.20177 17.4291C6.30698 17.4642 6.39984 17.5288 6.46928 17.6154C6.54158 17.7058 6.58836 17.814 6.60473 17.9286L6.66568 18.3569ZM5.46526 18.2537L6.3914 18.1081L6.36939 17.9692C6.3649 17.9206 6.34909 17.8736 6.32321 17.8322C6.29734 17.7908 6.26213 17.7559 6.22039 17.7305C6.11852 17.6807 6.00288 17.6663 5.89193 17.6899L5.81912 17.7017C5.70438 17.7114 5.59632 17.7598 5.51267 17.8388C5.4805 17.8759 5.45747 17.9201 5.44542 17.9677C5.43336 18.0154 5.43262 18.0652 5.44325 18.1131L5.46526 18.2537Z" fill="#01704A"/>
<path d="M13.3707 14.5729C13.3334 14.2461 13.3131 14.0751 13.3131 14.0548C13.3349 13.9522 13.3626 13.851 13.396 13.7517C13.4303 13.651 13.4575 13.548 13.4773 13.4436C13.4773 13.3894 13.4231 13.3098 13.308 13.2065C13.1641 13.0609 13.0828 12.9763 13.0659 12.9509C13.0264 12.8475 12.998 12.7402 12.9812 12.6309C12.8891 12.7566 12.8276 12.9021 12.8018 13.0558C12.7543 13.2063 12.722 13.3612 12.7053 13.5181C12.7192 13.5954 12.7402 13.6714 12.7679 13.7449C12.7983 13.8355 12.8215 13.9284 12.8373 14.0226C12.9434 15.017 13.0196 15.7778 13.0659 16.3049C13.0744 16.3777 13.0947 16.5233 13.1285 16.7384C13.1505 16.9229 13.1607 17.0228 13.1607 17.0381C13.1607 17.0533 13.0879 17.1312 12.944 17.2192C12.6154 17.4453 12.2301 17.5749 11.8316 17.5934C11.5826 17.5983 11.3368 17.5357 11.1205 17.4122C10.9916 17.3455 10.8845 17.2431 10.8119 17.1175C10.7393 16.9917 10.7042 16.8479 10.7108 16.7028C10.732 16.4854 10.7763 16.2709 10.8428 16.0628C10.8835 15.9037 10.9038 15.8495 10.9038 15.8935V15.8072C10.8776 15.8083 10.8521 15.8154 10.8292 15.828C10.8063 15.8407 10.7866 15.8584 10.7717 15.88C10.5011 16.3771 10.364 16.936 10.3738 17.502C10.3671 17.6452 10.3796 17.7888 10.4111 17.9286C10.5398 18.4185 10.9788 18.6635 11.7283 18.6635C12.0552 18.6665 12.3791 18.602 12.6799 18.4738C12.8578 18.4008 13.0195 18.2932 13.1555 18.157C13.2915 18.0211 13.3992 17.8594 13.4722 17.6814C13.5477 17.3789 13.5768 17.0667 13.5586 16.7553C13.5415 16.0246 13.4788 15.2957 13.3707 14.5729Z" fill="white"/>
<path d="M20.9879 16.21C20.7372 16.1399 20.5056 16.0137 20.3107 15.8409C19.5827 15.2291 19.1176 14.9238 18.9156 14.9249C18.7327 14.9249 18.5769 15.0401 18.4432 15.2635C18.3247 15.4474 18.2607 15.6611 18.2586 15.8798C18.3595 15.8076 18.4752 15.7585 18.5973 15.7359C18.7959 15.7704 18.9801 15.8622 19.1272 16.0001L19.5505 16.3522C19.166 16.4653 18.7659 16.5168 18.3653 16.5046H17.9132C17.7355 16.5046 17.6186 16.3234 17.5645 15.9628C17.4133 14.6151 17.3025 13.5349 17.2326 12.7222C16.9019 13.1217 16.7365 13.3283 16.7365 13.3419C16.723 13.7702 16.7027 14.2036 16.6739 14.6388C16.6315 15.1152 16.4292 15.5634 16.0999 15.9103C15.9134 15.2069 15.5945 14.5455 15.1602 13.9615C15.0473 13.8069 14.8752 13.6071 14.6438 13.3622C14.3504 13.0337 14.1669 12.8695 14.0936 12.8695H14.0191C13.8614 13.1129 13.7752 13.3956 13.7702 13.6856C13.7856 13.8109 13.8381 13.9288 13.9209 14.0242C13.959 14.0932 14.0133 14.152 14.079 14.1956C14.1447 14.2393 14.22 14.2664 14.2984 14.2748C14.3269 14.2734 14.3553 14.2694 14.3831 14.2629C14.4063 14.2561 14.4301 14.2515 14.4542 14.2494C14.5338 14.2494 14.6946 14.3984 14.935 14.6963C15.083 14.874 15.2182 15.0618 15.3397 15.2585C15.4283 15.4172 15.5058 15.5818 15.5717 15.7512C15.6376 15.8935 15.6826 16.0446 15.7054 16.1998C15.7054 16.3692 15.3482 16.6519 14.6303 17.0464C14.273 17.2326 13.9124 17.4155 13.5518 17.5933C13.9893 17.6622 14.4301 17.7086 14.8724 17.7321C15.075 17.7433 15.2782 17.7279 15.4768 17.6864C15.992 17.4416 16.392 17.0064 16.5926 16.4724C16.6315 16.3878 16.7619 15.9188 16.9668 15.0654C16.9905 15.5542 17.0069 15.9193 17.0159 16.1609C17.0244 16.4318 17.0345 16.6384 17.0481 16.784C17.0838 16.9939 17.1666 17.193 17.2902 17.3664C17.4595 17.5967 17.6288 17.705 17.8066 17.705H18.4754C18.5839 17.6937 18.6914 17.6744 18.797 17.6475C18.8602 17.6305 19.1424 17.5459 19.6436 17.3935C19.8947 17.3044 20.158 17.2541 20.4241 17.2445C20.6304 17.256 20.8357 17.2809 21.0387 17.319C21.3096 16.933 21.5382 16.6113 21.716 16.3505C21.3892 16.298 21.1454 16.2472 20.9879 16.21Z" fill="white"/>
</g>
<defs>
<clipPath id="clip0_83_1586">
<rect width="32" height="32" fill="white"/>
</clipPath>
</defs>
</svg>
