<svg width="32" height="32" viewBox="0 0 32 32" fill="none" xmlns="http://www.w3.org/2000/svg">
<g clip-path="url(#clip0_83_1632)">
<path d="M15.9881 0L18.5211 0.868571H21.1979L23.3109 2.51429L25.8421 3.38286L27.3067 5.62455L29.4197 7.26857L30.0766 9.86413L31.5412 12.1041L31.3194 14.7725L31.9763 17.368L30.9012 19.8197L30.6811 22.488L28.8677 24.4571L27.7909 26.9088L25.4375 28.1837L23.6241 30.1528L20.9829 30.593L18.6294 31.8679L15.9881 31.4277L13.3469 31.8679L10.9934 30.593L8.35217 30.1528L6.53884 28.1837L4.1854 26.9088L3.11026 24.4571L1.29693 22.488L1.07513 19.8197L0 17.368L0.656931 14.7725L0.436825 12.1041L1.89968 9.86413L2.55831 7.26857L4.66963 5.62455L6.13418 3.38286L8.66709 2.51429L10.7784 0.868571H13.4569L15.9881 0Z" fill="white"/>
<path d="M15.9695 20.314L16.3928 21.6177H17.7625L16.6535 22.4236L17.0785 23.7273L15.9695 22.9214L14.8605 23.7273L15.2838 22.4236L14.1748 21.6177H15.5462L15.9695 20.314Z" fill="#01704A"/>
<path d="M12.0532 20.8574L12.3411 21.7463H13.2757L12.5188 22.2949L12.8084 23.1838L12.0532 22.6335L11.2964 23.1838L11.5859 22.2949L10.8291 21.7463H11.7637L12.0532 20.8574Z" fill="#01704A"/>
<path d="M19.9248 20.8574L20.2126 21.7463H21.1472L20.3921 22.2949L20.6799 23.1838L19.9248 22.6335L19.168 23.1838L19.4575 22.2949L18.7007 21.7463H19.6353L19.9248 20.8574Z" fill="#01704A"/>
<path d="M13.396 6.23217L15.2737 8.49926L18.5803 3.67725L15.167 7.1346L13.396 6.23217Z" fill="#01704A"/>
<path d="M6.50324 15.2417V18.8193H6.04102V15.2417H6.50324Z" fill="#01704A"/>
<path d="M7.38395 18.2569C7.63544 18.407 7.92236 18.4876 8.21527 18.4905C8.68934 18.4905 8.96702 18.2416 8.96702 17.8793C8.96702 17.5407 8.774 17.3544 8.28977 17.1682C7.70395 16.9616 7.34162 16.6603 7.34162 16.1523C7.34162 15.5953 7.80384 15.1805 8.5031 15.1805C8.77778 15.1697 9.05077 15.2279 9.29717 15.3498L9.1685 15.7273C8.96029 15.6156 8.72756 15.5574 8.49125 15.558C8.00194 15.558 7.814 15.8509 7.814 16.0947C7.814 16.4334 8.03241 16.5942 8.5268 16.7855C9.13464 17.0192 9.44448 17.3104 9.44448 17.8353C9.44448 18.3889 9.03474 18.8664 8.18649 18.8664C7.86659 18.8701 7.55114 18.7914 7.27051 18.6378L7.38395 18.2569Z" fill="#01704A"/>
<path d="M13.2776 16.9938C13.2776 18.2247 12.5258 18.8782 11.6099 18.8782C10.6617 18.8782 9.99463 18.1451 9.99463 17.0632C9.99463 15.9254 10.704 15.1821 11.664 15.1821C12.624 15.1821 13.2776 15.9322 13.2776 16.9938ZM10.4907 17.0513C10.4907 17.8166 10.9072 18.5006 11.637 18.5006C12.3667 18.5006 12.7883 17.8234 12.7883 17.0141C12.7883 16.303 12.4141 15.5597 11.642 15.5597C10.87 15.5597 10.4907 16.2657 10.4907 17.0479V17.0513Z" fill="#01704A"/>
<path d="M15.3839 18.4907C15.51 18.4973 15.6364 18.4922 15.7615 18.4754C16.0326 18.4414 16.2861 18.3229 16.4861 18.1368C16.7417 17.894 16.9041 17.5693 16.945 17.2192H16.928C16.8296 17.339 16.705 17.4349 16.5639 17.499C16.4227 17.5634 16.2687 17.5943 16.1136 17.5899C15.9761 17.5923 15.8396 17.5662 15.7126 17.5134C15.5856 17.4606 15.4709 17.3822 15.3755 17.283C15.2802 17.1839 15.2063 17.0661 15.1585 16.9371C15.1107 16.8082 15.0901 16.6708 15.0978 16.5334C15.0923 16.3744 15.1189 16.2159 15.176 16.0674C15.2331 15.9189 15.3196 15.7834 15.4302 15.669C15.5408 15.5546 15.6733 15.4636 15.8198 15.4016C15.9663 15.3395 16.1238 15.3075 16.2829 15.3076C16.9924 15.3076 17.4292 15.8799 17.4292 16.762C17.4292 17.5205 17.1735 18.0522 16.8332 18.3806C16.5547 18.6424 16.1976 18.8048 15.8173 18.8429C15.6747 18.8662 15.5301 18.8752 15.3856 18.8699L15.3839 18.4907ZM15.5532 16.5047C15.5532 16.9347 15.8156 17.2378 16.2203 17.2378C16.3547 17.2413 16.4878 17.21 16.6065 17.1469C16.7252 17.0837 16.8255 16.9907 16.8976 16.8771C16.927 16.8257 16.9416 16.7671 16.9399 16.7078C16.9399 16.1186 16.7215 15.6683 16.2305 15.6683C15.8309 15.6666 15.5532 16.017 15.5532 16.5047Z" fill="#01704A"/>
<path d="M20.2804 17.0566C20.2804 18.23 19.8436 18.8784 19.0766 18.8784C18.3994 18.8784 17.9422 18.2469 17.9304 17.1057C17.9185 15.9646 18.4383 15.311 19.1359 15.311C19.8656 15.311 20.2804 15.9578 20.2804 17.0566ZM18.3994 17.1108C18.3994 18.0082 18.677 18.5178 19.1037 18.5178C19.5829 18.5178 19.8114 17.9591 19.8114 17.0787C19.8114 16.2321 19.593 15.6717 19.1088 15.6717C18.6991 15.6717 18.3994 16.1711 18.3994 17.1108Z" fill="#01704A"/>
<path d="M23.1485 17.0566C23.1485 18.23 22.7117 18.8784 21.9447 18.8784C21.2675 18.8784 20.8086 18.2469 20.7985 17.1057C20.7883 15.9646 21.3064 15.311 22.0023 15.311C22.732 15.311 23.1485 15.9578 23.1485 17.0566ZM21.2675 17.1108C21.2675 18.0082 21.5435 18.5178 21.9701 18.5178C22.451 18.5178 22.6795 17.9591 22.6795 17.0787C22.6795 16.2321 22.4611 15.6717 21.9752 15.6717C21.5655 15.6717 21.2675 16.1711 21.2675 17.1108Z" fill="#01704A"/>
<path d="M24.7315 15.8038H24.7197L24.1271 16.1289L24.0356 15.7733L24.7925 15.3687H25.192V18.8192H24.74L24.7315 15.8038Z" fill="#01704A"/>
<path d="M9.91509 13.0082C9.72157 13.0882 9.51314 13.1257 9.30388 13.1182C8.65202 13.1182 8.15932 12.7068 8.15932 11.95C8.15079 11.7888 8.17626 11.6275 8.23408 11.4768C8.29188 11.3261 8.38077 11.1892 8.49494 11.075C8.60909 10.9608 8.74599 10.872 8.89673 10.8142C9.04747 10.7563 9.20869 10.7309 9.36991 10.7394C9.55808 10.7315 9.74561 10.7662 9.91848 10.841L9.84737 11.0848C9.70049 11.0189 9.54101 10.986 9.38007 10.9883C8.83657 10.9883 8.47594 11.3354 8.47594 11.9398C8.47594 12.5053 8.80271 12.8677 9.36652 12.8677C9.53385 12.87 9.69988 12.8377 9.85414 12.7728L9.91509 13.0082Z" fill="#01704A"/>
<path d="M11.5742 12.0027H10.6752V12.8341H11.6775V13.0846H10.3755V10.7837H11.6267V11.0326H10.6752V11.7623H11.5742V12.0027Z" fill="#01704A"/>
<path d="M12.1513 10.8073C12.3408 10.774 12.5329 10.7582 12.7253 10.7599C13.0453 10.7599 13.2518 10.8175 13.4025 10.9478C13.4621 11.0039 13.5091 11.0719 13.5404 11.1476C13.5716 11.2232 13.5864 11.3046 13.5837 11.3864C13.5854 11.5186 13.5437 11.6477 13.4652 11.7541C13.3866 11.8605 13.2754 11.9383 13.1486 11.9756V11.9857C13.2411 12.0265 13.3212 12.091 13.3807 12.1728C13.4402 12.2546 13.4769 12.3507 13.4872 12.4513C13.5285 12.6672 13.5886 12.8791 13.6666 13.0846H13.3568C13.2888 12.9056 13.2372 12.7209 13.2027 12.5326C13.1333 12.2143 13.0097 12.0941 12.7388 12.0839H12.4442V13.0846H12.1445L12.1513 10.8073ZM12.451 11.8587H12.7557C13.0757 11.8587 13.2789 11.6894 13.2789 11.4202C13.2789 11.1222 13.0622 10.9919 12.7456 10.9885C12.6467 10.9857 12.5477 10.9948 12.451 11.0156V11.8587Z" fill="#01704A"/>
<path d="M14.5559 11.0309H13.8516V10.7837H15.5667V11.0377H14.859V13.0914H14.5559V11.0309Z" fill="#01704A"/>
<path d="M16.2081 10.7837V13.0914H15.9102V10.7837H16.2081Z" fill="#01704A"/>
<path d="M16.8179 10.7837H18.064V11.0326H17.1159V11.7996H17.9929V12.0468H17.1159V13.0914H16.8179V10.7837Z" fill="#01704A"/>
<path d="M18.8783 10.7837V13.0914H18.5786V10.7837H18.8783Z" fill="#01704A"/>
<path d="M20.6816 12.0027H19.7826V12.8341H20.7849V13.0846H19.4829V10.7837H20.7409V11.0326H19.7894V11.7623H20.6884L20.6816 12.0027Z" fill="#01704A"/>
<path d="M21.2587 10.8072C21.4695 10.7759 21.6823 10.76 21.8953 10.7598C22.3237 10.7598 22.6302 10.858 22.8333 11.0476C22.9441 11.1539 23.0304 11.283 23.0866 11.4259C23.1427 11.5689 23.1672 11.7222 23.1584 11.8755C23.165 12.0402 23.1386 12.2045 23.0804 12.3586C23.0221 12.5128 22.9336 12.6537 22.8198 12.7729C22.6031 12.9879 22.2458 13.1115 21.7954 13.1115C21.6139 13.1126 21.4324 13.1035 21.252 13.0844L21.2587 10.8072ZM21.5584 12.8474C21.6583 12.861 21.759 12.8667 21.8598 12.8643C22.4998 12.8643 22.8469 12.5088 22.8469 11.8857C22.8469 11.3422 22.5404 10.9951 21.9089 10.9951C21.7914 10.9932 21.6739 11.0034 21.5584 11.0256V12.8474Z" fill="#01704A"/>
</g>
<defs>
<clipPath id="clip0_83_1632">
<rect width="32" height="32" fill="white"/>
</clipPath>
</defs>
</svg>
