<svg width="32" height="32" viewBox="0 0 32 32" fill="none" xmlns="http://www.w3.org/2000/svg">
<g clip-path="url(#clip0_83_1654)">
<path d="M15.9881 0L18.5211 0.868571H21.1979L23.3109 2.51429L25.8421 3.38286L27.3067 5.62455L29.4197 7.26857L30.0766 9.86413L31.5412 12.1041L31.3194 14.7725L31.9763 17.368L30.9012 19.8197L30.6811 22.488L28.8677 24.4571L27.7909 26.9088L25.4375 28.1837L23.6241 30.1528L20.9829 30.593L18.6294 31.8679L15.9881 31.4277L13.3469 31.8679L10.9934 30.593L8.35217 30.1528L6.53884 28.1837L4.1854 26.9088L3.11026 24.4571L1.29693 22.488L1.07513 19.8197L0 17.368L0.656931 14.7725L0.436825 12.1041L1.89968 9.86413L2.55831 7.26857L4.66963 5.62455L6.13418 3.38286L8.66709 2.51429L10.7784 0.868571H13.4569L15.9881 0Z" fill="white"/>
<path d="M15.9695 20.314L16.3928 21.6177H17.7625L16.6535 22.4236L17.0785 23.7273L15.9695 22.9214L14.8605 23.7273L15.2838 22.4236L14.1748 21.6177H15.5462L15.9695 20.314Z" fill="#01704A"/>
<path d="M12.0532 20.8574L12.3411 21.7463H13.2757L12.5188 22.2949L12.8084 23.1838L12.0532 22.6335L11.2964 23.1838L11.5859 22.2949L10.8291 21.7463H11.7637L12.0532 20.8574Z" fill="#01704A"/>
<path d="M19.9248 20.8574L20.2126 21.7463H21.1472L20.3921 22.2949L20.6799 23.1838L19.9248 22.6335L19.168 23.1838L19.4575 22.2949L18.7007 21.7463H19.6353L19.9248 20.8574Z" fill="#01704A"/>
<path d="M13.396 6.23217L15.2737 8.49926L18.5803 3.67725L15.167 7.1346L13.396 6.23217Z" fill="#01704A"/>
<path d="M5.07085 15.2397V18.819H4.60693V15.2397H5.07085Z" fill="#01704A"/>
<path d="M5.94964 18.2552C6.20113 18.4054 6.48805 18.486 6.78096 18.4888C7.25503 18.4888 7.53271 18.2399 7.53271 17.8793C7.53271 17.5407 7.34138 17.3528 6.85546 17.1665C6.26964 16.9599 5.90731 16.6586 5.90731 16.1506C5.90731 15.5936 6.37122 15.1805 7.06879 15.1805C7.34347 15.1696 7.6165 15.2279 7.86286 15.3498L7.73588 15.7274C7.52758 15.6159 7.29489 15.5577 7.05863 15.558C6.56763 15.558 6.38138 15.851 6.38138 16.0948C6.38138 16.4334 6.5998 16.5942 7.09588 16.7856C7.70371 17.0192 8.01186 17.3104 8.01186 17.837C8.01186 18.3635 7.60212 18.8664 6.75387 18.8664C6.43399 18.8701 6.11853 18.7914 5.83789 18.6378L5.94964 18.2552Z" fill="#01704A"/>
<path d="M11.8452 16.9921C11.8452 18.223 11.0935 18.8765 10.1758 18.8765C9.22764 18.8765 8.56055 18.1434 8.56055 17.0615C8.56055 15.9254 9.26996 15.1821 10.23 15.1821C11.19 15.1821 11.8452 15.9305 11.8452 16.9921ZM9.05663 17.0496C9.05663 17.8149 9.47314 18.499 10.2029 18.499C10.9326 18.499 11.3542 17.8217 11.3542 17.0124C11.3542 16.3013 10.9817 15.558 10.208 15.558C9.4342 15.558 9.05663 16.264 9.05663 17.0496Z" fill="#01704A"/>
<path d="M14.6965 15.8035H14.6847L14.0836 16.1269L13.9922 15.7714L14.749 15.3667H15.1486V18.819H14.6965V15.8035Z" fill="#01704A"/>
<path d="M17.9944 18.819V17.8793H16.3843V17.5712L17.9301 15.3701H18.438V17.517H18.924V17.8844H18.438V18.8241L17.9944 18.819ZM17.9944 17.5119V16.3606C17.9944 16.1794 17.9944 16 18.0097 15.8188H17.9944C17.8878 16.0203 17.8031 16.1693 17.7066 16.3267L16.86 17.5001V17.517L17.9944 17.5119Z" fill="#01704A"/>
<path d="M21.7145 17.0564C21.7145 18.2297 21.2776 18.8765 20.5106 18.8765C19.8334 18.8765 19.3746 18.245 19.3644 17.1038C19.3542 15.9626 19.8723 15.3091 20.5682 15.3091C21.2996 15.3159 21.7145 15.9559 21.7145 17.0564ZM19.8334 17.1089C19.8334 18.0062 20.1111 18.5159 20.5377 18.5159C21.0169 18.5159 21.2455 17.9588 21.2455 17.0767C21.2455 16.2301 21.027 15.6697 20.5428 15.6697C20.1314 15.6697 19.8334 16.1624 19.8334 17.1089Z" fill="#01704A"/>
<path d="M24.5824 17.0564C24.5824 18.2297 24.1456 18.8765 23.3769 18.8765C22.6997 18.8765 22.2425 18.245 22.2307 17.1038C22.2188 15.9626 22.7386 15.3091 23.4362 15.3091C24.1659 15.3159 24.5824 15.9559 24.5824 17.0564ZM22.7014 17.1089C22.7014 18.0062 22.9773 18.5159 23.404 18.5159C23.8832 18.5159 24.1134 17.9588 24.1134 17.0767C24.1134 16.2301 23.895 15.6697 23.4091 15.6697C22.9993 15.6697 22.7014 16.1624 22.7014 17.1089Z" fill="#01704A"/>
<path d="M26.1653 15.8035H26.1534L25.5524 16.1269L25.4609 15.7714L26.2178 15.3667H26.6173V18.819H26.1653V15.8035Z" fill="#01704A"/>
<path d="M10.8512 13.0067C10.6577 13.0867 10.4493 13.1243 10.24 13.1168C9.58815 13.1168 9.09545 12.7054 9.09545 11.9502C9.08667 11.7889 9.11196 11.6275 9.16966 11.4765C9.22738 11.3256 9.3162 11.1885 9.4304 11.0741C9.54459 10.9598 9.68156 10.8707 9.83243 10.8128C9.98329 10.7549 10.1447 10.7294 10.306 10.7379C10.4942 10.73 10.6817 10.7648 10.8546 10.8395L10.7835 11.0833C10.6366 11.0175 10.4771 10.9845 10.3162 10.9868C9.7727 10.9868 9.41207 11.3339 9.41207 11.9401C9.41207 12.5039 9.73884 12.8662 10.3026 12.8662C10.47 12.8685 10.636 12.8363 10.7903 12.7714L10.8512 13.0067Z" fill="#01704A"/>
<path d="M12.5103 12.0007H11.6112V12.832H12.6135V13.0826H11.3115V10.7749H12.5627V11.0255H11.6112V11.7603H12.5103V12.0007Z" fill="#01704A"/>
<path d="M13.0962 10.8053C13.2857 10.7721 13.4778 10.7562 13.6702 10.7579C13.9902 10.7579 14.1967 10.8155 14.3474 10.9459C14.407 11.0019 14.454 11.07 14.4853 11.1456C14.5165 11.2212 14.5313 11.3026 14.5286 11.3844C14.5302 11.5166 14.4886 11.6458 14.4101 11.7522C14.3315 11.8585 14.2203 11.9363 14.0934 11.9736V11.9838C14.186 12.0245 14.2661 12.0891 14.3256 12.1709C14.385 12.2527 14.4218 12.3488 14.4321 12.4494C14.4734 12.6653 14.5334 12.8771 14.6115 13.0826H14.2814C14.2133 12.9037 14.1618 12.7189 14.1273 12.5306C14.0579 12.2123 13.9343 12.0938 13.6634 12.082H13.3823V13.0826H13.0962V10.8053ZM13.3959 11.8568H13.7006C14.0206 11.8568 14.2238 11.6875 14.2238 11.4183C14.2238 11.1203 14.0071 10.9899 13.6905 10.9865C13.5915 10.984 13.4925 10.9937 13.3959 11.0153V11.8568Z" fill="#01704A"/>
<path d="M15.4922 11.0289H14.7896V10.7749H16.5047V11.0289H15.797V13.0826H15.4939L15.4922 11.0289Z" fill="#01704A"/>
<path d="M17.1447 10.7749V13.0826H16.8467V10.7749H17.1447Z" fill="#01704A"/>
<path d="M17.7539 10.7749H19V11.0255H18.0519V11.7925H18.9289V12.038H18.0519V13.0826H17.7539V10.7749Z" fill="#01704A"/>
<path d="M19.8114 10.7749V13.0826H19.5117V10.7749H19.8114Z" fill="#01704A"/>
<path d="M21.6176 12.0007H20.7152V12.832H21.7175V13.0826H20.4155V10.7749H21.6667V11.0255H20.7152V11.7603H21.6143L21.6176 12.0007Z" fill="#01704A"/>
<path d="M22.1952 10.8057C22.406 10.7744 22.6189 10.7586 22.8319 10.7583C23.2602 10.7583 23.5667 10.8582 23.7699 11.0461C23.8806 11.1525 23.9669 11.2816 24.0231 11.4245C24.0792 11.5674 24.1037 11.7208 24.0949 11.8741C24.1015 12.0387 24.0751 12.203 24.0169 12.3572C23.9586 12.5114 23.8701 12.6522 23.7563 12.7714C23.5396 12.9864 23.1823 13.11 22.732 13.11C22.5505 13.1111 22.369 13.1021 22.1885 13.083L22.1952 10.8057ZM22.4949 12.8459C22.5948 12.8596 22.6956 12.8652 22.7963 12.8629C23.4363 12.8629 23.7834 12.5073 23.7834 11.8842C23.7834 11.3407 23.4769 10.9953 22.8454 10.9953C22.7279 10.9934 22.6104 11.0036 22.4949 11.0258V12.8459Z" fill="#01704A"/>
</g>
<defs>
<clipPath id="clip0_83_1654">
<rect width="32" height="32" fill="white"/>
</clipPath>
</defs>
</svg>
